{"glyphs":{"0":{"ha":715,"x_min":90,"x_max":627,"o":"m 365 -26 q 155 43 231 -26 q 90 340 91 199 q 123 572 90 481 q 203 712 157 663 q 353 739 288 739 q 562 670 487 739 q 626 373 625 514 q 593 141 627 232 q 513 1 559 50 q 365 -26 427 -26 m 484 538 q 476 629 484 590 q 399 637 444 637 q 276 422 320 549 q 232 176 232 296 q 240 84 232 125 q 317 77 273 76 q 440 291 396 165 q 484 538 484 416 z "},"1":{"ha":525,"x_min":0,"x_max":426,"o":"m 385 741 l 426 723 l 350 -4 l 227 -15 l 186 518 l 57 426 l 0 547 l 385 741 z "},"2":{"ha":642,"x_min":37,"x_max":555,"o":"m 307 739 q 534 686 449 739 q 547 597 548 643 q 448 328 547 467 q 205 100 350 189 l 205 91 l 555 126 l 555 0 l 45 0 l 37 75 q 243 273 157 132 q 328 537 328 415 q 269 666 328 632 l 100 552 l 42 673 q 159 723 102 707 q 307 739 217 739 z "},"3":{"ha":636,"x_min":52,"x_max":594,"o":"m 336 544 q 269 666 336 627 l 111 552 l 53 673 q 167 724 115 708 q 307 739 218 739 q 534 686 449 739 q 544 628 544 656 q 433 416 544 521 q 503 408 472 416 q 571 313 548 365 q 594 182 594 262 q 530 24 594 76 q 322 -27 465 -27 q 52 42 179 -27 l 106 142 q 382 57 228 64 q 399 214 399 119 q 382 338 400 309 q 252 282 315 320 l 224 319 l 239 334 q 312 438 288 380 q 336 544 336 496 z "},"4":{"ha":639,"x_min":81,"x_max":595,"o":"m 194 208 q 303 201 245 201 q 414 209 361 201 l 403 377 l 595 391 l 553 -4 l 430 -16 l 420 102 q 345 100 404 100 q 212 119 285 100 q 100 170 138 138 q 83 323 81 250 q 151 589 83 468 q 312 755 220 709 l 514 620 q 288 437 381 553 q 194 208 194 321 z "},"5":{"ha":636,"x_min":52,"x_max":594,"o":"m 438 416 q 503 408 475 416 q 571 313 548 365 q 594 182 594 262 q 530 24 594 76 q 322 -27 465 -27 q 52 42 179 -27 l 106 142 q 382 57 228 64 q 399 214 399 119 q 382 338 400 309 q 220 282 288 326 l 130 293 l 61 686 l 79 711 l 545 730 l 524 598 l 294 617 l 235 354 q 438 416 334 416 z "},"6":{"ha":636,"x_min":68,"x_max":583,"o":"m 221 73 q 304 50 269 49 q 372 57 339 50 q 388 214 388 119 q 372 338 388 309 q 221 73 259 298 m 426 419 q 492 408 461 419 q 560 313 537 365 q 583 168 583 262 q 529 24 583 75 q 336 -27 475 -27 q 194 -7 260 -27 q 88 46 127 14 q 68 231 69 140 q 142 552 68 412 q 312 755 216 692 l 514 620 q 210 262 279 471 l 224 252 q 311 376 258 334 q 426 419 363 419 z "},"7":{"ha":566,"x_min":16,"x_max":511,"o":"m 16 730 l 495 711 l 511 686 l 323 -4 l 201 -15 l 243 616 l 37 598 l 16 730 z "},"8":{"ha":684,"x_min":61,"x_max":624,"o":"m 61 189 q 165 373 61 302 q 142 381 151 377 q 80 545 80 463 q 336 739 80 739 q 544 703 446 739 q 605 540 606 621 q 515 374 605 439 l 557 361 q 624 183 624 275 q 350 -27 624 -27 q 127 12 229 -27 q 61 189 61 98 m 245 165 q 263 73 245 114 q 358 45 304 43 q 431 194 431 103 q 387 339 431 285 q 323 343 358 343 q 245 165 245 282 m 445 560 q 426 642 445 604 q 327 666 384 667 q 248 528 248 613 q 261 460 248 495 q 296 406 274 426 q 363 401 326 401 q 445 560 445 458 z "},"9":{"ha":636,"x_min":68,"x_max":583,"o":"m 430 639 q 347 663 382 663 q 279 654 312 662 q 263 498 263 591 q 279 374 263 404 q 433 582 434 403 q 430 639 433 606 m 228 293 q 159 305 199 293 q 91 400 114 349 q 68 529 68 452 q 122 688 68 636 q 315 739 176 739 q 457 719 391 739 q 563 666 524 699 q 583 481 582 572 q 502 147 583 300 q 326 -68 420 -5 l 137 58 q 285 189 216 109 q 400 355 354 269 l 392 359 q 228 293 317 293 z "},"\u0000":{"ha":0,"x_min":0,"x_max":0,"o":""},"\f":{"ha":0,"x_min":0,"x_max":0,"o":""}," ":{"ha":332,"x_min":0,"x_max":0,"o":""},"!":{"ha":425,"x_min":111,"x_max":359,"o":"m 142 14 q 126 30 142 14 q 111 87 111 45 q 142 159 111 129 q 215 190 172 190 q 288 159 258 190 q 317 87 317 129 q 288 14 317 45 q 215 -16 258 -16 q 142 14 172 -16 m 328 758 l 359 713 l 262 262 l 163 251 l 127 724 l 328 758 z "},"\"":{"ha":500,"x_min":45,"x_max":458,"o":"m 87 510 l 45 806 l 202 821 l 171 513 l 87 510 m 342 510 l 300 806 l 458 821 l 426 513 l 342 510 z "},"#":{"ha":882,"x_min":56,"x_max":827,"o":"m 434 -76 l 495 144 l 260 144 l 179 -100 l 100 -76 l 160 144 l 56 144 l 72 236 l 189 240 l 243 438 l 90 431 l 104 555 l 275 555 l 350 822 l 475 787 l 397 555 l 609 555 l 684 822 l 807 787 l 730 555 l 827 555 l 810 463 l 697 458 l 632 259 l 793 266 l 777 144 l 594 144 l 513 -100 l 434 -76 m 361 444 l 293 244 l 525 254 l 582 453 l 361 444 z "},"$":{"ha":636,"x_min":90,"x_max":581,"o":"m 160 426 q 271 646 160 538 l 256 833 l 366 833 l 357 716 q 446 779 387 736 l 581 598 q 441 522 494 568 q 388 431 388 475 q 414 309 388 388 q 441 198 441 231 q 353 42 441 106 l 366 -125 l 256 -125 l 266 -4 q 113 -50 209 -28 l 90 22 q 244 176 244 65 q 223 245 244 205 q 181 332 202 285 q 160 426 160 378 z "},"%":{"ha":883,"x_min":34,"x_max":849,"o":"m 274 -76 l 522 822 l 624 798 l 328 -90 l 274 -76 m 201 296 q 71 339 133 296 q 34 518 34 431 q 104 745 34 667 q 193 760 155 760 q 323 715 263 760 q 362 538 362 621 q 293 315 362 389 q 201 296 241 296 m 227 697 q 152 564 179 642 q 125 435 125 487 q 129 362 125 384 q 171 358 146 358 q 244 490 218 412 q 270 620 270 567 q 266 694 270 673 q 227 697 247 697 m 688 -15 q 556 30 620 -15 q 519 206 519 122 q 591 433 519 355 q 681 449 642 448 q 810 404 751 449 q 849 227 849 311 q 780 3 849 77 q 688 -15 728 -15 m 713 387 q 638 253 666 331 q 610 123 610 175 q 616 52 610 72 q 656 46 633 47 q 730 178 704 100 q 757 309 757 256 q 751 382 757 361 q 713 387 732 385 z "},"&":{"ha":682,"x_min":77,"x_max":716,"o":"m 404 -14 l 366 -15 q 208 5 281 -15 q 96 57 136 24 q 79 241 77 146 q 135 549 79 406 q 309 779 191 692 l 524 643 q 269 376 358 537 l 716 393 l 713 319 l 595 307 q 502 -232 568 146 l 427 -241 l 404 -14 m 190 90 q 303 77 251 77 q 395 84 355 77 l 373 279 l 220 263 q 190 90 190 174 z "},"'":{"ha":245,"x_min":45,"x_max":202,"o":"m 87 510 l 45 806 l 202 821 l 171 513 l 87 510 z "},"(":{"ha":444,"x_min":90,"x_max":411,"o":"m 90 384 q 225 821 90 612 l 411 785 q 205 307 206 553 q 323 -90 205 118 l 256 -109 q 90 384 90 127 z "},")":{"ha":444,"x_min":34,"x_max":357,"o":"m 239 307 q 34 785 239 553 l 220 821 q 355 384 357 613 q 187 -109 355 126 l 122 -90 q 239 307 239 118 z "},"*":{"ha":633,"x_min":79,"x_max":556,"o":"m 378 774 l 355 604 l 480 709 l 556 600 l 397 534 l 552 480 l 495 359 l 359 464 l 388 304 l 256 292 l 278 463 l 153 357 l 79 467 l 236 530 l 83 587 l 140 708 l 274 601 l 245 762 l 378 774 z "},"+":{"ha":678,"x_min":100,"x_max":581,"o":"m 401 410 l 581 410 l 568 317 l 401 307 l 401 109 l 309 121 l 296 300 l 100 288 l 111 410 l 290 410 l 279 589 l 401 578 l 401 410 z "},",":{"ha":316,"x_min":56,"x_max":263,"o":"m 155 -4 q 115 -16 140 -16 q 73 12 90 -16 q 56 90 56 39 q 77 165 56 140 q 159 190 98 190 q 254 155 220 190 q 263 61 262 114 q 165 -203 263 -115 l 81 -137 q 160 -7 145 -84 l 155 -4 z "},"-":{"ha":494,"x_min":79,"x_max":416,"o":"m 416 408 l 416 305 l 79 252 l 84 408 l 416 408 z "},".":{"ha":316,"x_min":56,"x_max":263,"o":"m 81 16 q 68 30 81 16 q 56 87 56 43 q 81 157 56 130 q 159 184 106 184 q 238 157 213 184 q 263 87 263 130 q 238 16 263 43 q 159 -11 213 -11 q 81 16 106 -11 z "},"/":{"ha":549,"x_min":90,"x_max":463,"o":"m 90 -76 l 338 822 l 463 787 l 167 -100 l 90 -76 z "},":":{"ha":316,"x_min":56,"x_max":266,"o":"m 83 388 q 71 401 83 388 q 58 458 58 415 q 83 529 58 502 q 162 556 109 556 q 241 529 216 556 q 266 458 266 502 q 241 388 266 415 q 162 361 216 361 q 83 388 109 361 m 81 16 q 68 30 81 16 q 56 87 56 43 q 81 157 56 130 q 159 184 106 184 q 238 157 213 184 q 263 87 263 130 q 238 16 263 43 q 159 -11 213 -11 q 81 16 106 -11 z "},";":{"ha":316,"x_min":56,"x_max":266,"o":"m 155 -4 q 115 -16 140 -16 q 73 12 90 -16 q 56 90 56 39 q 77 165 56 140 q 159 190 98 190 q 254 155 220 190 q 263 61 262 114 q 165 -203 263 -115 l 81 -137 q 160 -7 145 -84 l 155 -4 m 83 388 q 71 401 83 388 q 58 458 58 415 q 83 529 58 502 q 162 556 109 556 q 241 529 216 556 q 266 458 266 502 q 241 388 266 415 q 162 361 216 361 q 83 388 109 361 z "},"<":{"ha":678,"x_min":117,"x_max":585,"o":"m 568 551 l 254 345 l 585 193 l 519 87 l 117 312 l 117 408 l 543 617 l 568 551 z "},"=":{"ha":678,"x_min":100,"x_max":581,"o":"m 568 429 l 100 399 l 111 521 l 581 521 l 568 429 m 111 269 l 581 298 l 568 176 l 100 176 l 111 269 z "},">":{"ha":678,"x_min":95,"x_max":563,"o":"m 111 155 l 426 359 l 95 513 l 160 617 l 563 393 l 563 296 l 138 87 l 111 155 z "},"?":{"ha":450,"x_min":46,"x_max":430,"o":"m 142 14 q 126 30 142 14 q 111 87 111 45 q 142 159 111 129 q 215 190 172 190 q 288 159 258 190 q 317 87 317 129 q 288 14 317 45 q 215 -16 258 -16 q 142 14 172 -16 m 286 583 q 85 545 167 583 l 46 738 q 191 758 114 758 q 415 705 350 758 q 430 583 430 643 q 360 385 430 473 q 209 256 290 296 l 145 334 q 257 450 228 389 q 286 583 286 511 z "},"@":{"ha":1108,"x_min":77,"x_max":1034,"o":"m 740 210 q 740 195 740 210 q 755 157 741 180 q 817 133 770 133 q 897 184 863 133 q 932 327 932 236 q 913 480 932 418 q 854 593 894 543 q 743 671 815 643 q 578 699 670 699 q 418 675 487 699 q 231 518 294 633 q 178 263 178 414 q 254 12 178 113 q 534 -99 342 -99 q 789 0 667 -99 l 834 -68 q 529 -174 690 -172 q 321 -137 411 -174 q 180 -38 232 -100 q 77 260 77 85 q 245 671 77 532 q 586 773 368 773 q 787 738 697 773 q 929 643 876 703 q 1034 338 1034 521 q 1014 216 1034 267 q 967 136 994 164 q 895 88 940 109 q 785 68 850 68 q 674 111 719 68 q 620 229 629 153 l 612 229 q 423 83 555 83 q 342 160 374 83 q 309 334 309 237 q 350 474 309 431 q 484 517 391 517 q 646 473 578 517 l 724 529 l 757 503 l 741 248 q 740 210 739 240 m 606 444 q 528 469 570 469 q 457 456 487 469 q 452 353 452 397 q 459 242 452 308 q 476 152 467 176 q 556 214 515 160 q 606 444 608 281 z "},"A":{"ha":709,"x_min":34,"x_max":654,"o":"m 34 0 l 241 739 l 510 723 l 654 0 l 555 -16 l 477 168 l 182 144 l 144 -16 l 34 0 m 290 600 l 202 229 l 453 227 l 298 600 l 290 600 z "},"B":{"ha":779,"x_min":109,"x_max":700,"o":"m 109 700 q 416 750 273 750 q 646 697 560 750 q 665 589 665 640 q 564 397 665 472 q 663 286 627 349 q 700 171 700 224 q 619 26 700 83 q 366 -30 538 -30 q 172 -15 269 -30 l 109 700 m 290 66 q 408 50 351 50 q 480 57 464 50 q 519 214 519 136 q 483 350 519 293 q 316 296 416 320 l 290 66 m 323 361 q 441 444 397 391 q 484 541 484 496 q 469 622 484 585 q 426 678 453 659 q 355 665 400 678 l 323 361 z "},"C":{"ha":557,"x_min":77,"x_max":557,"o":"m 296 81 q 519 122 412 81 l 557 1 q 374 -27 468 -27 q 208 -7 281 -27 q 96 46 136 14 q 79 231 77 140 q 149 568 79 416 q 309 779 218 719 l 524 643 q 280 393 370 545 q 190 90 190 241 q 296 81 237 81 z "},"D":{"ha":726,"x_min":109,"x_max":693,"o":"m 109 700 q 418 751 273 751 q 656 708 564 751 q 693 503 693 618 q 629 267 693 387 q 444 68 566 148 q 172 -15 323 -11 l 109 700 m 293 79 q 445 222 393 119 q 496 426 496 324 q 404 678 496 624 q 355 670 385 678 l 293 79 z "},"E":{"ha":671,"x_min":103,"x_max":594,"o":"m 590 0 l 155 -9 l 103 723 l 594 738 l 590 663 l 355 636 l 327 406 l 563 408 l 568 308 l 317 327 l 288 79 l 594 114 l 590 0 z "},"F":{"ha":636,"x_min":103,"x_max":594,"o":"m 536 274 l 313 292 l 278 -4 l 155 -9 l 103 723 l 594 738 l 590 663 l 355 636 l 323 372 l 529 374 l 536 274 z "},"G":{"ha":639,"x_min":77,"x_max":606,"o":"m 426 -12 q 338 -15 396 -15 q 208 5 281 -15 q 96 57 136 24 q 79 241 77 146 q 135 549 79 406 q 309 779 191 692 l 524 643 q 280 393 370 545 q 190 90 190 241 q 311 77 251 77 q 418 88 370 77 l 396 331 l 606 345 l 540 -46 l 431 -56 l 426 -12 z "},"H":{"ha":853,"x_min":109,"x_max":760,"o":"m 570 -18 l 545 274 l 311 254 l 283 -4 l 172 -15 l 109 723 l 362 739 l 320 339 l 540 338 l 507 720 l 760 736 l 681 -7 l 570 -18 z "},"I":{"ha":477,"x_min":109,"x_max":373,"o":"m 172 -15 l 109 723 l 373 739 l 294 -4 l 172 -15 z "},"J":{"ha":467,"x_min":-8,"x_max":384,"o":"m 133 -27 q -8 11 65 -27 l 11 72 q 88 56 60 57 q 168 155 168 56 q 121 723 168 170 l 384 739 l 323 156 q 133 -27 304 -27 z "},"K":{"ha":755,"x_min":109,"x_max":735,"o":"m 694 663 l 460 418 l 735 1 l 499 -15 l 350 301 l 324 275 l 294 -4 l 172 -15 l 109 723 l 373 739 l 338 404 l 595 739 l 694 663 z "},"L":{"ha":560,"x_min":103,"x_max":572,"o":"m 567 0 l 155 -9 l 103 723 l 368 739 l 288 80 l 572 114 l 567 0 z "},"M":{"ha":1042,"x_min":90,"x_max":955,"o":"m 854 -16 l 696 574 l 686 574 l 566 0 l 465 -16 l 225 530 l 218 530 l 199 0 l 90 -5 l 141 723 l 410 734 l 522 203 l 652 739 l 921 723 l 955 0 l 854 -16 z "},"N":{"ha":768,"x_min":90,"x_max":713,"o":"m 713 734 l 665 0 l 566 -16 l 205 579 l 197 579 l 199 0 l 90 -5 l 119 723 l 388 739 l 583 184 l 591 184 l 602 728 l 713 734 z "},"O":{"ha":654,"x_min":66,"x_max":600,"o":"m 600 231 q 588 118 600 163 q 548 38 576 73 q 333 -26 492 -26 q 85 46 174 -27 q 66 231 66 140 q 136 560 66 415 q 297 768 205 705 q 513 568 427 715 q 600 231 600 422 m 464 279 q 408 572 464 450 q 240 344 301 473 q 179 90 179 214 q 294 81 217 81 q 445 106 370 81 q 464 279 464 193 z "},"P":{"ha":699,"x_min":109,"x_max":688,"o":"m 109 700 q 423 750 263 750 q 667 697 583 750 q 688 583 686 637 q 582 369 688 456 q 311 244 476 282 l 283 -4 l 172 -15 l 109 700 m 473 551 q 404 678 473 636 q 355 670 385 678 l 317 320 q 432 425 391 361 q 473 551 473 488 z "},"Q":{"ha":654,"x_min":66,"x_max":600,"o":"m 600 231 q 571 71 600 129 q 467 -9 543 12 l 591 -170 l 391 -183 l 328 -27 q 85 46 171 -26 q 66 231 66 140 q 136 560 66 415 q 297 768 205 705 q 513 568 427 715 q 600 231 600 422 m 464 279 q 408 572 464 450 q 240 344 301 473 q 179 90 179 214 q 294 81 217 81 q 445 106 370 81 q 464 279 464 193 z "},"R":{"ha":779,"x_min":109,"x_max":724,"o":"m 345 282 q 313 275 326 275 l 283 -4 l 172 -15 l 109 700 q 264 734 167 719 q 452 750 362 750 q 680 697 594 750 q 699 587 699 637 q 538 355 699 448 l 724 1 l 647 -42 l 345 282 m 484 556 q 415 678 484 635 q 355 666 388 678 l 321 346 q 441 439 399 381 q 484 556 484 498 z "},"S":{"ha":477,"x_min":54,"x_max":425,"o":"m 54 490 q 221 779 54 646 l 425 643 q 286 458 286 556 q 314 372 286 418 q 370 282 342 327 q 399 198 399 237 q 176 -50 399 38 l 123 22 q 199 79 178 52 q 220 141 220 107 q 194 216 220 175 q 137 292 168 258 q 80 380 106 327 q 54 490 54 434 z "},"T":{"ha":628,"x_min":45,"x_max":612,"o":"m 45 724 l 612 739 l 609 665 l 453 648 l 384 -4 l 263 -15 l 206 624 l 52 609 l 45 724 z "},"U":{"ha":772,"x_min":84,"x_max":680,"o":"m 380 -27 q 216 34 281 -27 q 137 231 151 95 l 84 723 l 349 739 q 302 187 302 203 q 423 60 302 60 q 517 94 479 60 q 557 213 556 127 l 567 728 l 680 734 l 646 212 q 380 -27 631 -27 z "},"V":{"ha":665,"x_min":16,"x_max":632,"o":"m 271 739 l 361 182 l 372 182 l 532 739 l 632 712 l 391 0 l 290 -16 l 16 708 l 271 739 z "},"W":{"ha":1025,"x_min":33,"x_max":981,"o":"m 286 739 l 363 179 l 372 179 l 540 705 l 629 680 l 745 175 l 753 175 l 882 739 l 981 712 l 784 0 l 685 -16 l 514 358 l 388 0 l 266 -16 l 33 708 l 286 739 z "},"X":{"ha":700,"x_min":34,"x_max":667,"o":"m 34 14 l 248 359 l 56 708 l 312 739 l 410 464 l 537 739 l 665 708 l 449 366 l 667 16 l 411 -15 l 290 266 l 160 -16 l 34 14 z "},"Y":{"ha":618,"x_min":4,"x_max":604,"o":"m 254 739 l 343 336 l 354 336 l 513 735 l 604 711 l 412 262 l 370 -4 l 259 -15 l 225 232 l 4 708 l 254 739 z "},"Z":{"ha":621,"x_min":22,"x_max":578,"o":"m 61 734 l 562 723 l 578 606 l 144 76 l 559 114 l 566 0 l 22 -9 l 26 64 l 328 632 l 64 659 l 61 734 z "},"[":{"ha":472,"x_min":111,"x_max":441,"o":"m 441 689 l 292 689 l 235 18 l 418 -4 l 429 -60 l 170 -117 l 111 749 l 441 798 l 441 689 z "},"\\":{"ha":549,"x_min":90,"x_max":463,"o":"m 214 822 l 463 -76 l 384 -100 l 90 787 l 214 822 z "},"]":{"ha":472,"x_min":34,"x_max":362,"o":"m 34 689 l 34 798 l 362 749 l 305 -117 l 45 -60 l 56 -4 l 239 18 l 182 689 l 34 689 z "},"^":{"ha":678,"x_min":117,"x_max":559,"o":"m 491 403 l 331 605 l 222 387 l 117 452 l 296 743 l 393 743 l 559 429 l 491 403 z "},"_":{"ha":637,"x_min":45,"x_max":594,"o":"m 579 -109 l 45 -138 l 60 -16 l 594 -16 l 579 -109 z "},"`":{"ha":486,"x_min":122,"x_max":387,"o":"m 189 837 l 387 701 l 350 627 l 122 697 l 189 837 z "},"a":{"ha":643,"x_min":39,"x_max":576,"o":"m 149 -26 q 122 -24 130 -26 q 62 52 84 1 q 39 165 39 102 q 93 260 39 228 q 290 292 146 292 q 403 285 343 292 l 400 309 q 358 380 396 354 q 261 406 320 406 q 144 369 202 406 l 95 529 q 312 568 190 568 q 505 513 434 568 q 576 342 576 458 q 574 300 576 315 l 544 -7 l 433 -16 l 416 144 l 408 144 q 303 19 370 64 q 149 -26 236 -26 m 407 237 l 349 239 q 228 231 275 239 q 213 175 213 199 q 219 128 213 151 q 233 99 225 106 q 407 237 366 119 z "},"b":{"ha":738,"x_min":79,"x_max":647,"o":"m 517 582 q 556 574 536 582 q 622 430 597 526 q 647 215 647 334 q 588 35 647 96 q 387 -27 529 -27 q 130 31 245 -27 l 79 758 l 316 795 l 275 350 l 285 350 q 391 519 330 456 q 517 582 452 582 m 248 47 q 334 45 278 45 q 442 57 389 45 q 458 220 458 142 q 437 449 458 393 q 248 47 294 392 z "},"c":{"ha":510,"x_min":56,"x_max":487,"o":"m 252 71 q 453 106 358 71 l 487 -1 q 323 -27 408 -27 q 172 -9 237 -27 q 73 39 106 9 q 56 187 57 119 q 119 439 56 326 q 263 600 182 553 l 456 473 q 235 294 316 397 q 155 77 155 190 q 252 71 202 71 z "},"d":{"ha":777,"x_min":92,"x_max":701,"o":"m 228 -26 q 183 -16 201 -26 q 117 109 142 26 q 92 310 92 193 q 144 489 92 427 q 323 551 195 551 q 480 519 401 551 l 464 758 l 701 795 l 631 -7 l 519 -16 l 506 175 l 496 175 q 228 -26 411 -26 m 366 484 q 296 469 326 484 q 281 258 281 389 q 304 64 281 126 q 418 141 358 72 q 470 242 449 176 q 491 392 491 308 q 488 445 491 408 q 366 484 438 484 z "},"e":{"ha":591,"x_min":56,"x_max":532,"o":"m 263 600 q 532 331 532 492 q 484 210 532 247 q 333 174 437 174 q 176 186 229 174 q 155 77 156 134 q 294 71 205 71 q 487 106 384 71 l 519 -1 q 338 -27 438 -27 q 73 39 157 -27 q 56 187 56 118 q 117 440 56 327 q 263 600 179 553 m 198 237 q 271 236 212 236 q 406 252 330 236 q 410 294 408 273 q 372 422 410 361 q 198 237 260 349 z "},"f":{"ha":477,"x_min":22,"x_max":446,"o":"m 366 833 l 407 643 q 263 522 305 608 l 446 532 l 442 458 l 332 442 l 278 -7 l 168 -16 l 123 410 l 30 396 l 22 510 l 122 514 q 201 743 130 663 q 366 833 271 822 z "},"g":{"ha":799,"x_min":92,"x_max":723,"o":"m 366 486 q 296 469 326 486 q 281 312 281 393 q 304 87 281 140 q 416 159 357 96 q 470 255 449 193 q 491 399 491 317 q 488 448 491 412 q 366 486 437 486 m 448 -244 q 220 -167 336 -244 l 250 -111 q 414 -155 349 -155 q 509 -120 479 -155 q 540 -28 540 -85 q 517 218 540 -11 l 507 218 q 228 -3 425 -3 q 183 5 201 -3 q 117 125 142 46 q 92 319 92 205 q 144 492 92 433 q 323 551 195 551 q 484 507 416 551 l 509 540 l 723 571 l 646 -50 q 583 -192 635 -140 q 448 -244 532 -244 z "},"h":{"ha":738,"x_min":79,"x_max":659,"o":"m 521 582 q 562 574 540 582 q 639 336 618 506 q 659 0 659 167 l 460 -16 q 442 449 460 240 q 244 -7 294 395 l 134 -16 l 79 758 l 316 795 l 274 338 l 285 338 q 392 515 331 449 q 521 582 453 582 z "},"i":{"ha":392,"x_min":79,"x_max":316,"o":"m 134 -16 l 79 534 l 316 570 l 244 -7 l 134 -16 m 113 657 q 98 672 113 657 q 83 730 83 688 q 113 803 83 773 q 186 833 144 833 q 258 803 228 833 q 289 730 289 773 q 258 657 289 688 q 186 627 228 627 q 113 657 144 627 z "},"j":{"ha":392,"x_min":-57,"x_max":316,"o":"m 113 657 q 98 672 113 657 q 83 730 83 688 q 113 803 83 773 q 186 833 144 833 q 258 803 228 833 q 289 730 289 773 q 258 657 289 688 q 186 627 228 627 q 113 657 144 627 m 76 -149 q -57 -100 4 -149 l -24 -43 q 50 -66 9 -68 q 129 31 129 -66 q 79 534 129 42 l 316 568 l 244 -5 q 76 -149 227 -149 z "},"k":{"ha":663,"x_min":79,"x_max":654,"o":"m 585 538 l 412 358 l 654 -3 l 442 -16 l 304 243 l 263 205 l 244 -7 l 134 -16 l 79 758 l 316 795 l 274 316 l 510 595 l 585 538 z "},"l":{"ha":392,"x_min":79,"x_max":316,"o":"m 134 -16 l 79 758 l 316 795 l 244 -7 l 134 -16 z "},"m":{"ha":1032,"x_min":73,"x_max":955,"o":"m 492 582 q 534 574 513 582 q 604 381 578 521 l 612 381 q 705 528 652 475 q 815 582 757 582 q 854 574 836 582 q 933 333 911 506 q 955 -7 955 160 l 754 -16 q 738 449 754 247 q 562 -7 605 396 l 431 -16 q 415 449 431 247 q 318 344 365 430 q 248 75 271 258 l 239 -7 l 129 -16 l 73 534 l 311 571 l 289 399 l 296 399 q 492 582 382 582 z "},"n":{"ha":732,"x_min":73,"x_max":654,"o":"m 514 582 q 556 574 534 582 q 633 336 613 506 q 654 0 654 167 l 454 -16 q 435 449 454 240 q 239 -7 288 395 l 129 -16 l 73 534 l 311 571 l 285 376 l 296 376 q 397 527 340 472 q 514 582 453 582 z "},"o":{"ha":597,"x_min":19,"x_max":543,"o":"m 453 452 q 543 214 543 347 q 490 27 543 81 q 294 -27 437 -27 q 73 38 152 -27 q 136 469 19 304 q 264 600 209 571 q 453 452 370 545 m 396 94 q 414 251 414 161 q 369 427 414 340 q 216 279 277 378 q 156 77 156 179 q 258 71 191 71 q 396 94 326 71 z "},"p":{"ha":751,"x_min":90,"x_max":659,"o":"m 529 582 q 570 574 549 582 q 635 430 610 526 q 659 216 659 334 q 608 35 659 98 q 429 -27 556 -27 q 258 11 338 -27 l 227 -231 l 123 -241 l 90 534 l 327 571 l 302 376 l 311 376 q 412 526 355 471 q 529 582 468 582 m 385 42 q 456 57 426 42 q 472 220 472 142 q 450 449 472 384 q 414 433 426 439 q 374 401 401 426 q 266 83 296 328 q 385 42 315 42 z "},"q":{"ha":799,"x_min":92,"x_max":723,"o":"m 228 -26 q 183 -16 201 -26 q 117 109 142 26 q 92 310 92 193 q 144 489 92 427 q 323 551 195 551 q 484 507 416 551 l 509 540 l 723 571 l 621 -231 l 518 -241 l 500 165 l 492 165 q 228 -26 407 -26 m 366 484 q 296 469 326 484 q 281 258 281 389 q 304 64 281 126 q 418 141 358 72 q 470 242 449 176 q 491 392 491 308 q 488 445 491 408 q 366 484 438 484 z "},"r":{"ha":521,"x_min":73,"x_max":522,"o":"m 426 366 q 311 313 350 366 q 254 119 273 260 l 239 -7 l 129 -16 l 73 534 l 311 571 l 288 393 l 296 393 q 522 597 385 585 l 491 361 q 426 366 450 366 z "},"s":{"ha":465,"x_min":66,"x_max":399,"o":"m 66 366 q 217 627 66 509 l 399 503 q 275 338 275 425 q 326 218 275 292 q 377 104 377 145 q 176 -121 377 -41 l 127 -54 q 216 50 216 -7 q 141 189 216 106 q 90 268 113 220 q 66 366 66 316 z "},"t":{"ha":477,"x_min":11,"x_max":457,"o":"m 168 -16 l 121 431 l 18 418 l 11 532 l 109 537 l 92 692 l 369 730 l 346 549 l 457 555 l 453 480 l 335 464 l 278 -7 l 168 -16 z "},"u":{"ha":765,"x_min":73,"x_max":689,"o":"m 392 130 q 412 157 392 130 q 448 245 433 183 q 464 354 464 308 q 452 534 464 400 l 689 570 l 617 -7 l 507 -16 l 486 194 l 477 194 q 216 -26 395 -26 q 171 -16 189 -26 q 94 217 114 52 q 73 547 73 382 l 294 563 q 275 273 275 369 q 290 64 274 176 q 392 130 351 77 z "},"v":{"ha":618,"x_min":34,"x_max":587,"o":"m 271 570 l 345 144 l 354 144 l 496 567 l 587 543 l 370 -3 l 279 -16 l 34 534 l 271 570 z "},"w":{"ha":918,"x_min":34,"x_max":887,"o":"m 263 567 l 331 136 l 339 136 l 491 529 l 570 506 l 673 133 l 681 133 l 796 560 l 887 536 l 709 -3 l 620 -16 l 458 243 l 354 -3 l 243 -16 l 34 534 l 263 567 z "},"x":{"ha":598,"x_min":34,"x_max":567,"o":"m 34 0 l 203 258 l 45 534 l 282 567 l 355 366 l 456 567 l 556 543 l 387 285 l 567 0 l 328 -24 l 236 182 l 134 -24 l 34 0 z "},"y":{"ha":628,"x_min":34,"x_max":595,"o":"m 355 -64 q 274 -198 316 -160 q 163 -236 232 -236 q 34 -186 95 -236 l 66 -129 q 147 -142 103 -142 q 227 -113 191 -142 q 273 -26 263 -84 l 42 534 l 279 570 l 354 144 l 362 144 l 506 567 l 595 543 l 355 -64 z "},"z":{"ha":621,"x_min":50,"x_max":551,"o":"m 84 566 l 536 556 l 551 441 l 178 73 l 522 113 l 529 0 l 50 -9 l 53 57 l 304 464 l 88 487 l 84 566 z "},"{":{"ha":472,"x_min":58,"x_max":441,"o":"m 240 54 q 312 -11 240 -11 q 419 1 350 -11 l 429 -60 q 260 -100 317 -100 q 184 -68 202 -100 q 159 38 165 -37 l 141 292 l 64 307 l 58 359 l 136 389 q 122 623 122 586 q 136 694 122 659 q 174 750 151 730 q 241 781 198 770 q 441 798 308 798 l 441 730 q 333 706 374 730 q 289 644 292 682 l 270 437 q 191 351 264 374 l 189 342 q 256 274 256 320 l 240 54 z "},"|":{"ha":395,"x_min":121,"x_max":275,"o":"m 153 -113 l 121 822 l 275 822 l 241 -113 l 153 -113 z "},"}":{"ha":472,"x_min":34,"x_max":415,"o":"m 233 54 l 218 274 q 285 342 218 320 l 282 351 q 203 437 209 373 l 184 644 q 141 706 182 682 q 34 730 100 730 l 34 798 q 220 784 165 798 q 297 750 274 770 q 353 609 351 704 q 338 389 353 587 l 415 359 l 410 307 l 332 292 l 315 38 q 290 -68 309 -37 q 214 -100 271 -100 q 45 -60 156 -100 l 54 1 q 163 -11 125 -11 q 233 54 233 -11 z "},"~":{"ha":678,"x_min":100,"x_max":581,"o":"m 568 324 q 474 350 526 350 q 338 301 422 350 q 196 252 254 252 q 100 288 138 252 l 107 414 q 202 378 148 378 q 334 410 256 378 q 469 442 412 442 q 581 404 526 442 l 568 324 z "}," ":{"ha":332,"x_min":0,"x_max":0,"o":""},"¡":{"ha":425,"x_min":111,"x_max":359,"o":"m 328 538 q 344 523 328 538 q 359 465 359 507 q 328 393 359 423 q 256 362 297 362 q 183 393 214 362 q 152 465 152 423 q 183 538 152 507 q 256 568 214 568 q 328 538 297 568 m 141 -206 l 111 -163 l 209 290 l 308 301 l 342 -171 l 141 -206 z "},"¢":{"ha":510,"x_min":56,"x_max":487,"o":"m 56 277 q 104 502 56 399 q 225 662 153 605 l 212 833 l 323 833 l 307 659 l 456 562 q 235 382 316 486 q 155 165 155 279 q 252 159 201 159 q 453 195 358 159 l 487 88 q 307 62 408 62 l 323 -125 l 212 -125 l 227 68 q 73 127 123 83 q 56 277 56 209 z "},"£":{"ha":701,"x_min":90,"x_max":636,"o":"m 202 225 q 191 307 202 259 l 90 298 l 100 388 l 168 388 q 130 578 130 513 q 144 686 130 643 q 372 739 229 739 q 518 722 461 739 q 636 673 575 705 l 578 552 l 410 666 q 363 614 376 646 q 350 526 350 583 q 349 388 350 469 l 513 388 l 502 328 l 342 317 q 241 77 326 155 l 245 68 l 614 126 l 621 0 l 122 0 l 126 52 q 202 225 202 115 z "},"¤":{"ha":753,"x_min":56,"x_max":697,"o":"m 568 524 q 609 385 609 469 q 568 247 609 301 l 697 144 l 618 64 l 513 197 q 377 167 458 167 q 241 197 296 167 l 134 64 l 56 144 l 184 247 q 144 385 144 301 q 184 524 144 469 l 56 628 l 134 707 l 241 572 q 376 604 294 604 q 513 572 458 605 l 618 707 l 697 628 l 568 524 m 399 526 q 303 494 327 526 q 279 381 279 461 q 294 260 279 301 q 355 243 319 244 q 449 275 427 243 q 471 389 471 308 q 458 511 471 469 q 399 526 434 526 z "},"¥":{"ha":618,"x_min":4,"x_max":604,"o":"m 254 739 l 343 336 l 354 336 l 513 735 l 604 711 l 475 410 l 578 410 l 564 351 l 448 345 l 411 260 l 404 210 l 556 210 l 543 151 l 393 142 l 370 -4 l 259 -15 l 237 133 l 46 122 l 60 210 l 228 210 l 225 232 l 180 328 l 68 321 l 83 410 l 142 410 l 4 708 l 254 739 z "},"¦":{"ha":395,"x_min":121,"x_max":275,"o":"m 275 822 l 266 556 l 129 556 l 121 822 l 275 822 m 153 -113 l 141 214 l 252 214 l 241 -113 l 153 -113 z "},"§":{"ha":688,"x_min":62,"x_max":627,"o":"m 627 245 q 460 52 627 119 q 484 -58 484 0 q 366 -282 484 -170 l 121 -144 q 216 3 216 -77 q 140 146 216 71 q 87 218 111 175 q 62 307 62 260 q 228 498 62 427 q 203 610 203 549 q 324 833 203 719 l 570 694 q 472 548 472 627 q 496 471 472 510 q 549 405 519 433 q 602 334 578 377 q 627 245 627 292 m 399 133 q 453 206 453 171 q 431 273 453 241 q 361 349 410 304 q 290 419 312 395 q 235 344 235 380 q 258 277 236 308 q 330 199 279 247 q 399 133 381 152 z "},"¨":{"ha":486,"x_min":42,"x_max":445,"o":"m 67 665 q 55 678 67 665 q 42 730 42 692 q 67 795 42 768 q 126 823 92 823 q 186 795 160 823 q 212 730 212 768 q 186 665 212 692 q 126 637 160 637 q 67 665 92 637 m 300 665 q 288 678 300 665 q 275 730 275 692 q 300 795 275 768 q 360 823 326 823 q 420 795 395 823 q 445 730 445 768 q 420 665 445 692 q 360 637 395 637 q 300 665 326 637 z "},"©":{"ha":944,"x_min":111,"x_max":856,"o":"m 127 799 q 525 872 347 872 q 779 782 703 872 q 854 557 856 692 q 746 248 854 376 q 483 121 637 121 q 111 779 111 121 l 127 799 m 811 557 q 741 753 811 680 q 517 827 670 827 q 155 761 363 827 q 483 165 159 164 q 715 280 618 165 q 811 557 811 395 m 407 359 q 483 356 426 357 q 601 378 540 355 l 627 302 q 507 285 572 285 q 343 330 396 285 q 332 441 332 384 q 376 642 332 552 q 475 770 419 732 l 609 686 q 463 538 517 628 q 407 359 408 449 z "},"ª":{"ha":452,"x_min":54,"x_max":378,"o":"m 123 429 q 106 430 113 429 q 54 545 54 461 q 87 604 54 585 q 184 624 121 624 q 269 621 247 624 q 247 668 269 651 q 191 685 225 685 q 117 661 157 685 l 85 765 q 220 789 148 789 q 336 753 293 788 q 378 648 378 719 q 359 441 378 635 l 288 434 l 279 518 l 273 518 q 210 453 248 477 q 123 429 171 429 m 358 328 l 56 298 l 66 388 l 369 388 l 358 328 m 271 585 q 227 587 256 587 q 172 583 198 587 q 165 546 164 570 q 174 509 165 522 q 271 585 251 524 z "},"«":{"ha":798,"x_min":79,"x_max":720,"o":"m 79 301 l 258 518 l 359 468 l 241 270 l 387 73 l 292 24 l 85 218 l 79 301 m 574 271 l 720 73 l 627 24 l 419 218 l 411 301 l 591 518 l 692 468 l 574 271 z "},"¬":{"ha":678,"x_min":90,"x_max":568,"o":"m 568 410 l 568 100 l 458 90 l 477 312 l 90 288 l 100 410 l 568 410 z "},"®":{"ha":944,"x_min":111,"x_max":856,"o":"m 127 799 q 525 872 347 872 q 779 782 703 872 q 854 557 856 692 q 746 248 854 376 q 483 121 637 121 q 111 779 111 121 l 127 799 m 811 557 q 741 753 811 680 q 517 827 670 827 q 155 761 363 827 q 483 165 159 164 q 715 280 618 165 q 811 557 811 395 m 566 513 q 677 304 629 395 l 627 274 l 448 468 l 431 464 l 415 297 l 340 290 l 305 722 q 498 752 400 753 q 648 722 595 751 q 661 652 661 686 q 566 513 661 567 m 437 514 q 503 569 479 536 q 528 640 528 602 q 487 703 528 677 q 456 697 475 703 l 437 514 z "},"¯":{"ha":423,"x_min":85,"x_max":382,"o":"m 376 680 l 85 648 l 94 781 l 382 781 l 376 680 z "},"°":{"ha":433,"x_min":56,"x_max":377,"o":"m 264 704 q 170 692 203 716 q 137 625 137 667 q 168 545 137 583 q 262 555 231 530 q 294 623 294 581 q 264 704 294 665 m 94 514 q 75 535 94 514 q 56 624 56 556 q 94 734 56 692 q 216 777 133 777 q 338 734 300 777 q 377 624 377 692 q 338 514 377 556 q 216 472 300 472 q 94 514 133 472 z "},"±":{"ha":678,"x_min":100,"x_max":581,"o":"m 401 499 l 581 499 l 568 407 l 401 396 l 401 198 l 309 209 l 296 388 l 100 377 l 111 499 l 290 499 l 279 678 l 401 666 l 401 499 m 568 18 l 100 -12 l 111 110 l 581 110 l 568 18 z "},"²":{"ha":450,"x_min":61,"x_max":380,"o":"m 64 738 q 227 783 142 783 q 368 746 312 783 q 377 696 376 724 q 326 543 377 621 q 197 411 275 465 l 197 404 q 380 422 359 422 l 380 334 l 65 334 l 61 387 q 182 506 133 420 q 232 650 232 591 q 206 724 232 709 q 158 691 194 716 q 104 655 122 666 l 64 738 z "},"³":{"ha":448,"x_min":57,"x_max":391,"o":"m 171 541 q 227 653 227 601 q 194 724 227 705 q 99 655 176 711 l 57 738 q 117 767 85 753 q 222 782 148 781 q 355 746 297 783 q 361 709 362 728 q 307 593 361 651 q 334 587 319 593 q 391 448 391 533 q 227 317 391 319 q 57 363 137 317 l 95 431 q 258 380 167 385 q 267 463 267 418 q 258 530 267 507 q 182 496 218 521 l 159 528 l 171 541 z "},"´":{"ha":486,"x_min":144,"x_max":410,"o":"m 144 701 l 342 837 l 410 697 l 182 627 l 144 701 z "},"µ":{"ha":765,"x_min":72,"x_max":689,"o":"m 463 397 q 452 534 463 465 l 689 570 l 617 -7 l 507 -16 l 486 194 l 477 194 q 279 -18 411 15 l 279 -232 l 182 -254 q 73 547 72 180 l 279 563 l 279 58 q 415 168 368 77 q 463 397 463 258 z "},"¶":{"ha":701,"x_min":90,"x_max":602,"o":"m 448 433 q 366 328 415 365 q 269 290 317 290 q 193 301 221 290 q 118 391 146 332 q 90 522 90 449 q 143 721 90 658 q 334 784 197 784 q 477 759 410 784 q 583 693 545 734 q 602 464 602 576 q 528 45 602 233 q 361 -222 453 -144 l 156 -52 q 344 160 264 35 q 461 425 423 285 l 448 433 z "},"·":{"ha":316,"x_min":56,"x_max":263,"o":"m 81 250 q 68 263 81 250 q 56 320 56 277 q 81 391 56 363 q 159 418 106 418 q 238 391 213 418 q 263 320 263 363 q 238 250 263 277 q 159 222 213 222 q 81 250 106 222 z "},"¸":{"ha":510,"x_min":138,"x_max":427,"o":"m 176 -100 q 283 -130 243 -130 q 359 -115 323 -130 q 237 -7 330 -53 l 269 49 q 414 -66 385 -15 q 426 -121 427 -92 q 374 -204 426 -178 q 260 -231 321 -231 q 138 -208 199 -231 l 176 -100 z "},"¹":{"ha":381,"x_min":26,"x_max":293,"o":"m 260 784 l 293 770 l 247 331 l 160 323 l 142 636 q 106 610 134 631 q 66 582 79 590 l 26 665 l 260 784 z "},"º":{"ha":457,"x_min":66,"x_max":392,"o":"m 213 906 q 342 786 292 873 q 392 600 392 699 q 359 465 392 500 q 230 429 327 429 q 83 475 133 429 q 72 583 72 529 q 113 782 72 694 q 209 905 153 869 l 213 906 m 307 613 q 274 783 307 712 q 180 649 214 724 q 144 502 145 574 q 206 499 159 499 q 294 513 254 499 q 307 613 307 567 m 369 328 l 66 298 l 79 388 l 380 388 l 369 328 z "},"»":{"ha":798,"x_min":79,"x_max":720,"o":"m 720 240 l 540 24 l 438 73 l 556 271 l 411 468 l 506 518 l 712 323 l 720 240 m 224 270 l 79 468 l 172 518 l 378 323 l 387 240 l 206 24 l 106 73 l 224 270 z "},"¼":{"ha":883,"x_min":47,"x_max":838,"o":"m 259 -76 l 507 822 l 610 798 l 315 -90 l 259 -76 m 282 761 l 316 747 l 269 309 l 183 301 l 165 613 q 90 559 133 591 l 47 643 l 282 761 m 600 134 q 713 136 639 129 l 708 236 l 838 243 l 811 -3 l 726 -11 l 720 60 q 534 100 585 60 q 519 198 521 153 q 562 359 519 286 q 662 458 605 431 l 795 372 q 658 265 715 332 q 600 134 601 198 z "},"½":{"ha":883,"x_min":47,"x_max":823,"o":"m 229 -76 l 477 822 l 581 798 l 285 -90 l 229 -76 m 282 761 l 316 747 l 269 309 l 183 301 l 165 613 q 90 559 133 591 l 47 643 l 282 761 m 507 404 q 670 449 586 449 q 811 414 754 449 q 821 362 819 392 q 770 210 821 288 q 640 79 719 133 l 640 71 q 823 90 803 88 l 823 0 l 509 0 l 505 53 q 626 172 576 87 q 675 317 675 258 q 650 391 675 376 q 602 358 637 382 q 548 323 566 334 l 507 404 z "},"¾":{"ha":883,"x_min":35,"x_max":838,"o":"m 290 -76 l 540 822 l 642 798 l 345 -90 l 290 -76 m 149 518 q 204 631 205 578 q 172 703 203 684 q 77 633 155 689 l 35 715 q 80 739 64 730 q 201 760 126 760 q 332 724 275 760 q 339 688 339 707 q 283 570 339 629 q 312 564 296 570 q 369 425 369 510 q 203 296 369 296 q 35 340 114 296 l 73 410 q 235 358 145 363 q 244 440 244 396 q 236 509 244 484 q 159 475 197 499 l 137 506 l 149 518 m 600 134 q 713 136 639 129 l 708 236 l 838 243 l 811 -3 l 726 -11 l 720 60 q 534 100 585 60 q 519 198 521 153 q 562 359 519 286 q 662 458 605 431 l 795 372 q 658 265 715 332 q 600 134 601 198 z "},"¿":{"ha":450,"x_min":22,"x_max":406,"o":"m 310 538 q 325 523 310 538 q 340 465 340 507 q 310 393 340 423 q 237 362 279 362 q 165 393 195 362 q 134 465 134 423 q 165 538 134 507 q 237 568 195 568 q 310 538 279 568 m 165 -31 q 366 7 285 -31 l 406 -186 q 260 -206 338 -206 q 125 -191 183 -206 q 38 -153 66 -176 q 22 -30 23 -91 q 91 168 22 80 q 243 296 160 256 l 307 220 q 195 102 224 164 q 165 -31 165 41 z "},"ʃ":{"ha":477,"x_min":-30,"x_max":448,"o":"m 104 -210 q -30 -160 33 -210 l 4 -103 q 79 -127 38 -127 q 157 -30 157 -127 q 139 173 157 41 q 118 328 121 305 l 22 321 l 34 410 l 111 410 l 111 435 q 135 566 111 509 q 197 659 159 624 q 361 739 273 730 l 434 549 q 310 502 347 536 q 252 410 273 468 l 448 410 l 435 351 l 323 343 l 274 -65 q 104 -210 255 -210 z "},"ˆ":{"ha":514,"x_min":90,"x_max":426,"o":"m 90 682 l 218 834 l 426 732 l 342 632 l 258 701 l 127 629 l 90 682 z "},"ˇ":{"ha":514,"x_min":90,"x_max":426,"o":"m 426 720 l 218 617 l 90 770 l 127 823 l 258 751 l 342 821 l 426 720 z "},"ˉ":{"ha":423,"x_min":62,"x_max":361,"o":"m 354 680 l 62 648 l 72 781 l 361 781 l 354 680 z "},"˘":{"ha":532,"x_min":122,"x_max":454,"o":"m 271 617 q 180 664 214 617 q 122 777 146 711 l 182 814 q 209 768 199 783 q 235 742 218 754 q 279 730 252 730 q 325 753 307 730 q 361 821 343 777 l 454 758 q 271 617 372 617 z "},"˙":{"ha":340,"x_min":75,"x_max":271,"o":"m 271 815 q 258 673 271 726 q 152 654 208 654 q 75 659 96 654 q 106 800 75 741 q 271 815 160 815 z "},"˚":{"ha":340,"x_min":37,"x_max":304,"o":"m 274 830 q 304 729 304 789 q 269 633 304 669 q 176 597 233 597 q 66 616 118 597 q 37 718 37 656 q 73 814 38 779 q 165 849 107 849 q 274 830 222 849 m 220 738 q 212 788 220 768 q 171 796 201 796 q 122 708 122 772 q 129 658 122 681 q 171 650 141 650 q 220 738 220 674 z "},"˛":{"ha":510,"x_min":138,"x_max":426,"o":"m 426 -208 q 190 -203 297 -258 q 138 -121 138 -178 q 191 -19 138 -65 q 296 49 237 18 l 327 -7 q 205 -115 236 -53 q 281 -130 240 -129 q 388 -100 323 -130 l 426 -208 z "},"˜":{"ha":510,"x_min":96,"x_max":422,"o":"m 308 774 q 355 825 334 774 l 422 806 q 328 650 403 650 q 271 665 311 650 q 212 680 231 680 q 164 629 186 680 l 96 647 q 191 803 115 803 q 249 789 209 803 q 308 774 289 774 z "},"˝":{"ha":567,"x_min":84,"x_max":562,"o":"m 84 677 l 232 840 l 317 726 l 123 620 l 84 677 m 328 677 l 476 840 l 562 726 l 368 620 l 328 677 z "},"Δ":{"ha":731,"x_min":56,"x_max":677,"o":"m 56 0 l 285 739 l 444 723 l 677 0 l 56 0 m 321 648 l 168 85 l 552 60 l 321 648 z "},"Ω":{"ha":873,"x_min":79,"x_max":798,"o":"m 79 505 q 218 707 79 667 q 404 731 300 731 q 559 727 507 731 q 736 667 675 718 q 798 513 798 616 q 736 300 798 410 q 583 111 675 190 l 793 83 l 796 0 l 545 0 l 491 126 q 568 269 540 178 q 595 441 595 359 q 557 586 595 524 q 437 648 518 648 q 318 586 357 648 q 279 441 279 524 q 308 268 279 359 q 385 126 336 176 l 331 0 l 79 0 l 83 83 l 292 111 q 138 299 198 189 q 79 505 79 410 z "},"μ":{"ha":765,"x_min":72,"x_max":689,"o":"m 463 397 q 452 534 463 465 l 689 570 l 617 -7 l 507 -16 l 484 212 q 279 -18 416 18 l 279 -232 l 182 -254 q 73 547 72 180 l 279 563 l 279 58 q 415 168 368 77 q 463 397 463 258 z "},"π":{"ha":823,"x_min":34,"x_max":791,"o":"m 637 145 l 636 133 q 700 64 636 65 q 761 79 727 64 l 791 5 q 656 -27 734 -27 q 496 95 510 -27 l 461 437 l 334 429 l 278 -7 l 168 -16 l 122 415 l 34 410 l 52 556 l 774 556 l 757 458 l 675 453 l 637 145 z "},"।":{"ha":228,"x_min":0,"x_max":119,"o":"m 119 -27 l 0 -27 l 0 640 l 119 640 l 119 -27 z "},"॥":{"ha":499,"x_min":0,"x_max":391,"o":"m 119 -27 l 0 -27 l 0 640 l 119 640 l 119 -27 m 391 -27 l 271 -27 l 271 640 l 391 640 l 391 -27 z "},"ఁ":{"ha":518,"x_min":-5,"x_max":363,"o":"m 254 564 q 191 496 217 541 q 127 355 138 406 q 206 106 95 214 q 296 37 250 62 q 363 0 343 11 l 184 0 q 88 73 127 27 q 14 312 -5 170 q 138 543 38 442 q 178 578 163 567 l 254 564 z "},"ం":{"ha":728,"x_min":-7,"x_max":601,"o":"m 534 506 q 585 432 568 473 q 595 328 601 391 q 559 201 589 264 q 477 85 529 137 q 350 9 425 33 q 110 66 214 -26 q 38 157 65 106 q 2 250 11 208 q 15 351 -7 293 q 75 463 37 410 q 159 555 113 517 q 243 597 205 593 q 534 506 423 610 m 358 103 q 409 130 385 100 q 447 204 433 160 q 462 297 461 248 q 444 380 463 346 q 326 476 396 446 q 213 480 248 509 q 179 444 198 472 q 145 379 160 416 q 128 298 130 342 q 146 217 126 255 q 358 103 195 127 z "},"ః":{"ha":384,"x_min":-18,"x_max":258,"o":"m 193 591 q 252 488 258 562 q 203 385 247 430 q 149 355 180 363 q 92 355 117 347 q 49 380 66 362 q 1 458 11 414 q 33 549 -7 494 q 111 607 69 602 q 193 591 152 612 m 151 408 q 182 445 170 406 q 186 479 186 461 q 174 513 186 496 q 138 541 163 530 q 103 545 114 552 q 81 519 92 537 q 70 477 71 500 q 85 434 69 454 q 151 408 102 414 m 193 285 q 252 182 258 255 q 203 79 247 123 q 149 49 180 57 q 92 48 117 41 q 49 73 66 56 q 7 195 -16 133 q 68 282 27 248 q 104 298 88 297 q 193 285 152 304 m 149 102 q 179 138 168 99 q 184 172 184 155 q 173 206 184 189 q 136 234 161 224 q 101 237 111 244 q 80 212 91 231 q 68 172 69 193 q 84 130 68 151 q 149 102 100 110 z "},"అ":{"ha":986,"x_min":-9,"x_max":852,"o":"m 505 532 q 514 549 505 532 q 552 588 524 566 q 604 618 581 610 q 669 619 628 625 q 751 583 711 613 q 852 342 852 514 q 807 188 852 252 q 696 82 762 123 q 551 20 629 41 q 418 0 473 0 q 307 16 362 0 q 198 58 251 33 q 3 258 16 148 q 60 450 -9 353 q 150 541 95 499 q 257 589 205 583 q 352 581 309 595 q 422 538 395 567 q 452 481 449 509 q 427 391 454 431 q 350 337 399 351 q 271 331 301 323 q 171 399 209 350 q 151 280 136 335 q 211 184 165 225 q 323 120 256 142 q 456 98 391 98 q 572 119 522 98 q 656 174 621 140 q 728 334 728 247 q 675 450 728 400 q 585 490 623 499 q 591 412 548 483 q 621 367 605 391 q 635 313 636 343 q 618 258 633 283 q 514 190 583 195 q 457 188 491 187 q 389 189 423 189 q 313 190 354 189 l 313 288 l 510 288 q 543 310 540 288 q 532 351 545 332 q 489 451 491 404 q 505 532 487 498 m 255 511 q 239 474 236 498 q 260 432 243 450 q 300 407 277 414 q 345 419 324 400 q 361 459 365 438 q 342 496 358 480 q 301 518 326 513 q 255 511 277 524 z "},"ఆ":{"ha":966,"x_min":-19,"x_max":831,"o":"m 313 296 q 522 296 403 286 q 546 298 536 296 q 567 300 556 300 q 541 343 557 319 q 530 359 536 351 q 507 537 460 453 q 553 593 525 571 q 616 622 582 614 q 692 616 650 629 q 766 573 735 602 q 814 503 798 544 q 830 420 831 463 q 727 258 825 321 q 711 119 762 184 q 572 30 667 65 q 403 0 481 -3 q 288 18 349 0 q 187 57 228 37 q 34 186 96 103 q 11 358 -18 251 q 149 551 41 467 q 351 586 248 623 q 420 543 393 571 q 452 490 448 515 q 432 403 454 441 q 343 343 410 365 q 222 361 289 326 q 170 400 194 377 q 149 279 133 334 q 210 186 164 225 q 323 125 255 146 q 449 103 391 103 q 536 113 507 103 q 581 138 566 123 q 602 213 608 164 q 530 198 566 206 q 422 193 480 193 q 313 198 365 193 l 313 296 m 342 502 q 334 510 342 502 q 300 524 326 518 q 254 516 275 530 q 235 478 233 502 q 253 435 237 454 q 294 409 269 415 q 343 422 320 403 q 363 464 366 442 q 342 502 359 486 m 663 339 q 713 426 719 370 q 667 494 709 468 q 585 495 623 522 q 583 416 544 471 q 623 376 601 393 q 651 353 644 358 l 663 339 z "},"ఇ":{"ha":883,"x_min":-31,"x_max":762,"o":"m 609 -12 q 519 79 551 42 q 312 3 437 19 q 117 24 202 -14 q 54 70 76 41 q 35 136 31 99 q 64 197 39 172 q 125 236 90 222 q 288 262 194 264 q 448 228 361 262 q 501 201 480 214 q 528 186 522 189 q 628 377 633 285 q 568 464 625 427 q 467 469 511 490 q 435 438 444 460 q 412 365 420 399 l 317 365 q 326 418 326 393 q 301 494 326 473 q 254 507 286 503 q 191 507 221 511 q 141 488 160 503 q 160 410 111 463 q 209 373 179 387 l 114 298 q 8 498 -30 427 q 174 602 38 548 q 286 633 250 632 q 328 625 321 635 q 349 570 338 608 q 368 514 361 533 q 456 589 406 567 q 613 567 491 605 q 694 526 677 547 l 713 502 q 738 327 762 433 q 692 222 726 273 q 642 151 658 171 q 609 121 625 130 l 705 42 l 609 -12 m 176 153 q 269 98 164 103 q 457 132 366 94 q 399 165 442 149 q 309 187 357 180 q 176 153 191 202 z "},"ఈ":{"ha":1085,"x_min":1,"x_max":1004,"o":"m 134 583 l 480 795 l 528 681 l 171 526 l 134 583 m 646 427 q 656 325 662 387 q 621 200 650 263 q 542 85 593 137 q 419 11 491 34 q 184 65 288 -26 q 77 245 106 136 q 92 349 69 290 q 151 460 114 407 q 232 550 187 513 q 312 591 277 587 q 595 500 487 605 q 646 427 629 468 m 423 102 q 477 132 450 100 q 522 208 505 164 q 542 300 538 252 q 526 382 545 349 q 349 491 454 492 q 206 363 254 488 q 283 136 151 210 q 423 102 334 109 m 655 368 q 685 368 655 368 q 758 366 715 368 q 821 365 800 365 q 873 353 842 365 q 925 317 903 340 q 909 132 1004 240 q 776 79 842 53 q 712 152 739 92 q 722 239 696 189 q 749 285 732 263 l 1 285 l 1 380 q 330 374 209 377 q 524 370 452 372 q 655 368 595 369 m 829 174 q 839 168 829 174 q 870 163 849 161 q 900 178 891 164 q 894 215 909 193 q 857 256 879 237 q 816 284 836 275 q 793 281 796 293 q 796 212 784 239 q 829 174 808 186 m 864 488 q 827 335 864 426 q 811 332 819 332 q 770 351 792 332 l 787 384 q 808 447 808 427 q 798 472 808 467 q 757 454 779 480 q 739 427 747 444 q 663 463 694 427 q 743 524 681 502 q 846 529 808 548 q 864 488 864 518 z "},"ఉ":{"ha":905,"x_min":0,"x_max":783,"o":"m 437 618 l 408 753 l 509 755 l 479 620 l 437 618 m 718 433 l 716 355 l 0 347 l 0 430 l 718 433 m 642 575 q 600 477 608 500 q 549 487 583 480 q 471 496 514 494 q 293 464 369 500 q 155 305 194 408 q 146 171 123 225 q 187 130 159 144 q 241 144 206 125 q 399 251 316 184 q 496 125 435 175 q 600 79 555 79 q 663 102 651 79 q 537 122 610 80 q 505 153 517 134 q 480 216 480 186 q 494 270 480 245 q 567 334 522 321 q 599 338 576 335 q 648 336 621 342 q 747 236 715 320 q 731 73 781 145 q 581 0 681 0 q 496 20 532 0 q 433 62 460 41 q 387 100 406 84 q 347 104 368 117 q 292 68 327 91 q 225 27 258 46 q 121 5 146 -15 q 31 175 46 71 q 141 472 8 336 q 243 548 184 518 q 476 594 334 598 q 576 584 532 591 q 642 575 620 576 m 671 153 q 682 187 684 163 q 665 233 680 212 q 571 267 628 289 q 594 184 543 236 q 637 155 614 165 q 671 153 659 144 z "},"ఊ":{"ha":1147,"x_min":0,"x_max":1051,"o":"m 713 431 l 869 430 q 974 385 930 427 q 963 212 1050 311 q 837 163 899 141 q 780 231 804 175 q 788 311 765 263 q 812 355 798 334 l 0 347 l 0 430 q 388 431 267 431 q 713 431 551 431 m 949 256 q 913 328 966 281 q 876 352 894 345 q 857 350 859 359 q 855 284 845 309 q 884 248 865 259 q 923 239 903 237 q 949 256 943 241 m 902 582 q 918 528 918 571 q 887 400 918 486 q 871 397 880 397 q 829 416 850 397 q 846 448 836 430 q 862 481 856 465 q 868 511 868 498 q 857 529 868 524 q 803 483 830 540 q 763 497 784 486 q 732 519 742 509 q 806 578 747 555 q 902 582 867 601 m 339 610 l 311 745 l 411 747 l 382 612 l 339 610 m 486 618 l 458 747 l 559 750 l 529 620 l 486 618 m 642 575 q 600 477 608 500 q 549 487 583 480 q 471 496 514 494 q 293 464 369 500 q 155 305 194 408 q 146 171 123 225 q 187 130 159 144 q 241 144 206 125 q 399 251 316 184 q 496 125 435 175 q 600 79 555 79 q 663 102 651 79 q 537 122 610 80 q 505 153 517 134 q 480 216 480 186 q 494 270 480 245 q 567 334 522 321 q 599 338 576 335 q 648 336 621 342 q 747 236 715 320 q 731 73 781 145 q 581 0 681 0 q 496 20 532 0 q 433 62 460 41 q 387 100 406 84 q 347 104 368 117 q 292 68 327 91 q 225 27 258 46 q 121 5 146 -15 q 31 175 46 71 q 141 472 8 336 q 243 548 184 518 q 476 594 334 598 q 576 584 532 591 q 642 575 620 576 m 671 153 q 682 187 684 163 q 665 233 680 212 q 571 267 628 289 q 594 184 543 236 q 637 155 614 165 q 671 153 659 144 z "},"ఋ":{"ha":1526,"x_min":-15,"x_max":1398,"o":"m 602 594 q 747 420 692 521 q 770 336 773 374 q 753 248 768 297 q 708 149 738 198 q 529 0 637 31 q 476 28 502 9 q 427 64 450 47 q 380 94 403 81 q 340 104 358 107 q 279 85 321 102 q 190 49 237 68 q 33 0 60 0 q 9 32 20 4 q 3 102 -3 60 q 141 301 14 209 q 24 350 85 290 q 1 442 -15 387 q 41 507 9 472 q 147 582 90 564 q 255 591 205 600 q 341 553 305 582 q 382 488 377 525 q 255 308 388 381 q 157 221 186 270 q 148 144 122 164 q 196 147 160 134 q 268 185 232 160 q 327 231 304 210 q 361 264 350 251 q 377 271 373 277 q 395 236 381 264 q 431 178 410 208 q 529 113 491 100 q 559 131 537 114 q 601 176 581 148 q 598 420 680 290 q 450 594 534 521 l 602 594 m 119 517 q 112 457 100 486 q 149 410 123 429 q 202 387 174 392 q 245 395 231 381 q 247 466 263 438 q 204 507 231 494 q 151 523 178 521 q 119 517 125 525 m 674 170 q 823 109 746 152 q 886 162 854 121 q 924 267 917 203 q 899 415 930 331 q 773 594 868 499 l 968 594 q 1050 305 1050 458 q 993 102 1050 202 q 909 -1 962 49 q 662 34 826 56 q 555 9 606 27 q 674 170 613 83 m 1257 -1 q 1010 34 1175 56 q 903 9 955 27 q 963 98 932 53 q 1010 171 994 142 q 1105 142 1053 165 q 1172 109 1157 118 q 1234 162 1203 121 q 1272 267 1265 203 q 1248 415 1279 331 q 1122 594 1217 499 l 1317 594 q 1398 305 1398 458 q 1340 102 1398 202 q 1257 -1 1310 49 z "},"ఌ":{"ha":1042,"x_min":-8,"x_max":892,"o":"m 795 369 q 892 315 888 362 q 715 18 861 114 q 598 -34 650 -24 q 500 -37 547 -43 q 420 -17 453 -30 q 351 16 388 -4 q 283 62 315 37 q 233 117 251 88 q 256 236 195 184 q 342 284 296 271 q 436 305 389 297 q 527 328 483 313 q 604 378 571 342 q 606 453 625 406 q 560 519 589 498 q 502 541 526 541 q 429 491 441 541 q 420 458 425 475 q 412 422 415 442 l 320 422 q 326 477 326 453 q 306 551 326 536 q 254 572 286 567 q 191 572 221 576 q 142 552 161 568 q 136 510 123 536 q 205 426 167 444 l 110 351 q 5 496 30 426 q 5 555 -8 532 q 43 600 18 579 q 102 640 69 621 q 173 673 136 658 q 241 697 210 689 q 324 697 311 715 q 347 637 336 675 q 363 578 357 600 q 456 659 403 633 q 534 658 483 671 q 629 622 585 644 q 700 572 674 600 q 742 430 742 525 q 643 277 742 342 q 426 205 552 220 q 372 161 369 183 q 400 117 373 149 q 460 76 427 84 q 529 71 494 68 q 648 111 602 75 q 770 283 731 183 q 795 369 788 328 z "},"ఎ":{"ha":768,"x_min":-19,"x_max":636,"o":"m 499 0 q 339 41 401 43 q 274 27 315 41 q 185 0 197 0 q 151 5 174 0 q 104 20 129 9 q 55 46 79 30 q 16 84 31 62 q 20 199 -18 136 q 106 288 57 263 q 200 315 155 312 q 281 305 245 317 q 326 277 316 293 q 361 160 347 231 q 407 111 374 125 q 441 114 422 104 q 473 161 461 123 q 488 250 486 199 q 450 441 495 374 q 263 587 382 522 l 467 595 q 610 426 557 513 q 636 343 636 381 q 499 0 636 259 m 222 84 q 241 125 235 99 q 241 177 247 151 q 215 225 236 203 q 152 254 194 247 q 130 233 138 255 q 125 180 121 210 q 152 121 130 149 q 222 84 174 94 z "},"ఏ":{"ha":848,"x_min":-19,"x_max":633,"o":"m 496 0 q 336 41 399 43 q 273 27 313 41 q 184 0 195 0 q 151 5 174 0 q 102 20 127 9 q 52 46 77 30 q 14 84 27 62 q 19 200 -18 137 q 104 288 56 263 q 199 315 153 312 q 279 305 244 317 q 323 277 313 293 q 358 160 345 231 q 407 111 376 123 q 477 164 448 94 q 505 361 514 255 q 475 448 500 414 q 395 539 426 514 q 345 578 363 564 l 551 587 q 612 447 591 513 q 633 343 633 381 q 496 0 633 259 m 221 84 q 241 176 250 125 q 216 225 236 203 q 155 254 195 247 q 129 233 138 255 q 123 180 119 210 q 150 121 127 149 q 221 84 172 94 m 83 458 q 90 544 76 507 q 176 667 118 618 q 377 719 229 712 q 506 715 439 722 l 506 654 q 419 656 458 656 q 282 643 317 656 q 237 602 247 629 q 233 480 218 549 l 83 458 z "},"ఐ":{"ha":910,"x_min":-7,"x_max":776,"o":"m 511 680 q 713 594 647 670 q 770 434 764 537 q 731 206 776 331 q 661 80 700 132 q 564 3 590 -15 q 412 33 488 45 q 342 16 378 26 q 267 1 307 5 q 73 50 126 -23 q 50 208 30 109 q 75 278 58 247 q 110 317 92 309 q 311 315 260 391 q 338 267 326 293 q 368 215 351 241 q 422 165 385 189 q 492 136 458 141 q 551 144 525 132 q 647 401 642 184 q 612 526 647 488 q 532 560 578 563 q 469 540 487 557 q 431 441 431 502 l 315 441 q 313 456 313 449 q 312 469 312 463 q 309 488 312 475 q 293 524 307 502 q 258 564 279 547 q 163 583 209 604 q 126 480 115 562 q 149 404 132 445 l 18 404 q 3 497 -7 449 q 41 585 12 545 q 110 652 69 625 q 191 680 151 678 q 324 632 260 682 q 369 582 350 610 q 464 667 387 628 q 511 680 487 680 m 279 92 q 288 157 288 129 q 279 205 288 184 q 233 256 267 239 q 151 270 198 274 q 138 189 126 228 q 174 121 149 149 q 231 83 199 94 q 279 92 263 73 z "},"ఒ":{"ha":884,"x_min":-7,"x_max":755,"o":"m 745 346 q 713 118 755 210 q 644 50 690 69 q 552 15 598 30 q 456 0 506 0 q 245 98 343 3 q 60 11 205 98 q 28 -6 34 -5 q 16 18 23 -7 q 4 80 8 43 q 14 224 -7 176 q 68 296 35 271 q 220 363 129 342 q 62 396 127 363 q 5 514 -5 433 q 174 662 19 623 q 298 676 252 681 q 353 665 345 671 q 392 613 384 646 q 395 514 400 581 q 359 408 389 448 q 291 345 330 369 q 214 304 252 321 q 153 266 175 288 q 125 203 123 241 q 149 168 127 168 q 213 198 167 168 q 309 256 297 254 q 331 251 320 259 q 355 229 342 243 q 382 196 368 214 q 410 163 397 178 q 443 130 423 149 q 486 98 463 111 q 593 98 544 68 q 617 140 609 107 q 622 213 625 174 q 600 290 618 252 q 544 346 582 328 l 745 346 m 269 416 q 279 475 279 446 q 273 529 279 505 q 209 576 262 568 q 138 557 151 586 q 138 475 125 528 q 209 425 146 442 q 269 416 235 418 z "},"ఓ":{"ha":884,"x_min":-9,"x_max":755,"o":"m 30 -4 q 7 56 15 -7 q 15 236 -9 178 q 220 363 58 326 q 64 396 126 363 q 7 515 -4 433 q 174 662 20 625 q 297 677 251 682 q 353 667 343 673 q 390 614 384 647 q 392 515 396 582 q 358 410 388 449 q 290 347 328 370 q 213 306 251 323 q 156 271 175 289 q 131 236 137 252 q 125 205 125 220 q 149 170 127 170 q 212 198 165 170 q 309 257 297 252 q 331 253 320 262 q 355 230 342 244 q 382 197 368 216 q 410 164 397 179 q 441 131 422 149 q 483 99 460 113 q 593 98 540 66 q 616 140 609 107 q 621 213 624 174 q 599 290 617 252 q 544 347 581 328 l 745 347 q 713 119 755 212 q 644 52 690 71 q 456 1 528 1 q 241 98 345 1 q 60 11 202 98 q 30 -4 34 -4 m 157 578 q 136 551 146 572 q 135 492 126 529 q 164 444 144 456 q 269 418 202 420 q 277 520 288 486 q 247 564 267 555 q 157 578 208 586 m 312 662 q 241 658 263 658 l 193 658 q 169 715 172 678 q 172 779 165 753 q 198 827 179 804 q 335 880 239 875 q 507 783 464 884 q 522 675 525 736 l 419 671 q 412 770 435 709 q 381 816 401 798 q 322 828 361 834 q 275 795 283 822 q 312 662 259 741 z "},"ఔ":{"ha":990,"x_min":-42,"x_max":846,"o":"m 152 266 q 126 203 126 239 q 149 168 126 168 q 214 198 170 168 q 310 256 298 252 q 333 251 321 259 q 358 228 345 243 q 410 163 380 203 q 593 96 514 47 q 619 139 610 106 q 625 212 628 172 q 603 289 621 251 q 548 346 585 327 l 749 346 q 713 118 757 213 q 646 49 690 69 q 457 0 530 0 q 245 96 347 0 q 60 11 199 96 q 28 -5 34 -4 q 16 18 23 -7 q 4 80 8 43 q 19 235 -7 176 q 220 362 62 324 q 62 396 127 362 q 5 514 -5 431 q 174 662 19 623 q 298 676 252 681 q 353 665 345 671 q 392 613 384 646 q 395 525 400 581 q 376 437 391 469 q 338 383 361 406 q 290 345 316 361 q 239 316 264 330 q 190 291 213 302 q 152 266 167 279 m 161 576 q 137 549 149 571 q 134 491 125 528 q 164 442 144 454 q 269 416 202 419 q 277 528 293 471 q 210 576 263 568 q 161 576 186 581 m 304 635 l 294 635 l 304 635 m 3 821 q -42 940 -1 865 q 481 920 119 947 q 694 894 651 907 q 763 859 738 880 q 803 812 788 837 q 837 709 826 774 q 798 586 845 639 q 639 562 734 517 q 541 659 556 601 q 553 807 513 764 q 429 823 491 818 q 321 834 368 827 q 377 789 354 829 q 401 713 401 753 q 347 662 401 694 q 311 644 328 651 q 294 635 294 636 q 242 631 275 631 q 170 632 209 631 q 95 637 132 633 l 27 643 l 91 709 l 183 704 q 210 705 194 704 q 259 728 259 705 q 239 789 263 768 q 176 819 214 811 q 3 821 106 834 m 621 746 q 619 738 621 746 q 623 710 617 730 q 649 671 629 690 q 688 648 669 651 q 722 655 707 646 q 739 728 755 678 q 709 768 732 747 q 654 785 685 789 q 635 773 644 784 q 621 746 625 762 z "},"క":{"ha":628,"x_min":-26,"x_max":524,"o":"m -4 498 l -26 585 l 453 819 l 496 671 l -4 498 m 505 617 l 498 491 q 187 404 281 445 q 163 388 170 396 q 401 323 292 370 q 518 227 524 273 q 507 161 514 199 q 477 87 499 122 q 308 0 426 0 l 1 0 l 0 180 q 343 107 256 66 q 396 158 391 127 q 376 219 401 189 q 301 275 351 250 q 209 308 251 301 q 138 320 167 315 q 19 334 83 328 l -3 437 q 168 505 102 479 q 275 547 233 530 q 355 575 316 563 q 481 613 450 608 l 505 617 z "},"ఖ":{"ha":826,"x_min":-8,"x_max":716,"o":"m 302 41 l 370 42 l 346 -103 l 241 -107 l 302 41 m 400 186 q 525 109 452 168 q 586 353 617 208 q 453 594 557 477 l 629 594 q 692 470 673 540 q 713 344 711 400 q 703 229 716 288 q 547 0 669 96 q 499 26 525 8 q 445 60 473 45 q 328 65 374 94 q 103 5 176 -18 q 0 159 -7 34 q 31 204 1 182 q 106 239 60 227 q 320 222 214 269 q 327 290 334 254 q 292 377 316 346 q 118 300 164 270 q 31 380 58 339 q 1 452 4 420 q 24 510 -3 483 q 85 557 50 537 q 156 586 121 578 q 278 568 237 606 q 401 396 369 503 q 412 321 412 355 q 411 256 411 286 q 400 186 411 225 m 152 406 q 161 401 152 406 q 189 396 170 396 q 226 410 209 396 q 236 443 243 423 q 209 480 229 463 q 103 506 159 522 q 91 490 91 503 q 98 462 91 477 q 120 431 106 446 q 152 406 134 415 m 297 146 q 199 171 275 171 q 119 138 122 171 q 160 92 114 98 q 235 103 197 90 q 297 146 300 129 z "},"గ":{"ha":758,"x_min":1,"x_max":620,"o":"m 66 582 l 594 745 l 617 593 l 73 500 l 66 582 m 60 0 q 1 193 1 83 q 81 433 1 323 q 290 562 164 548 q 515 495 419 574 q 617 264 620 410 q 559 43 614 146 q 536 1 545 19 l 380 0 q 446 125 427 71 q 477 231 465 180 q 480 330 488 282 q 448 410 472 377 q 289 472 395 480 q 137 271 171 461 q 178 88 125 195 q 235 0 201 42 l 60 0 z "},"ఘ":{"ha":1078,"x_min":-11,"x_max":974,"o":"m 800 -3 q 604 23 709 34 q 449 5 532 23 q 481 52 464 30 q 517 101 498 75 q 556 153 536 127 q 610 149 566 163 q 715 104 697 125 q 793 182 760 119 q 808 345 830 250 q 667 575 781 458 l 854 575 q 925 198 972 385 q 800 -3 895 87 m 76 486 l 52 555 l 465 811 l 525 669 l 76 486 m 614 335 q 454 1 614 206 q 432 11 450 1 q 387 33 414 20 q 190 61 282 83 q 111 37 149 52 q 55 22 72 23 q 24 43 38 22 q 5 95 11 64 q 14 230 -11 176 q 71 309 38 283 q 136 343 103 335 q 194 343 168 351 q 227 312 220 335 q 317 189 254 228 q 475 217 425 122 q 463 453 536 334 q 425 509 446 480 l 585 571 q 614 335 617 444 m 129 216 q 122 206 129 216 q 111 175 115 197 q 119 139 106 153 q 153 132 133 125 q 189 159 174 140 q 208 200 203 178 q 199 232 213 222 q 162 242 182 250 q 129 216 142 235 m 206 41 l 274 42 l 248 -103 l 144 -107 l 206 41 z "},"ఙ":{"ha":987,"x_min":-8,"x_max":853,"o":"m 842 351 q 810 123 853 220 q 743 55 788 75 q 650 20 697 35 q 553 5 604 5 q 345 103 439 8 q 157 16 298 103 q 125 -1 130 0 q 113 24 121 -1 q 102 85 106 49 q 144 288 87 216 q 178 326 161 308 q 220 359 197 343 q 24 416 77 345 q 5 529 -7 457 q 175 675 23 637 q 298 689 255 694 q 351 673 340 684 q 372 653 361 663 q 389 629 384 643 q 347 473 407 583 q 307 400 328 437 q 251 287 255 309 q 242 245 247 264 q 235 209 237 225 q 245 174 229 174 q 311 203 263 174 q 410 264 400 262 q 431 257 419 266 q 454 234 442 248 q 481 201 467 220 q 509 169 495 183 q 542 136 522 155 q 586 104 562 117 q 690 103 644 75 q 716 145 707 113 q 722 217 726 178 q 646 351 711 316 l 842 351 m 134 484 q 205 435 142 453 q 264 426 231 427 q 273 537 289 483 q 209 583 262 572 q 157 586 184 587 q 134 484 121 566 m 517 667 l 540 667 q 582 669 559 667 q 637 671 605 670 l 571 426 l 446 414 q 476 515 463 469 q 517 667 514 640 m 366 570 l 727 591 l 739 498 l 327 498 l 366 570 z "},"చ":{"ha":894,"x_min":0,"x_max":776,"o":"m 224 547 l 654 726 l 673 570 l 228 471 l 224 547 m 258 480 q 259 495 259 484 q 254 547 259 506 q 304 556 263 555 q 404 549 346 557 q 526 524 461 541 q 646 477 590 506 q 773 307 770 410 q 681 72 776 164 q 607 18 644 35 q 540 -2 570 1 q 480 10 510 -5 q 428 47 450 26 q 387 90 406 69 q 351 115 369 111 q 274 92 321 126 q 152 -8 227 58 q 146 193 111 92 q 187 275 161 239 l 0 231 l 22 382 l 351 400 q 287 261 302 326 q 281 187 271 197 q 311 183 292 178 q 373 218 339 191 q 425 243 407 241 q 455 230 442 245 q 486 193 468 214 q 528 152 505 171 q 623 129 583 109 q 668 209 661 161 q 661 305 675 256 q 613 396 646 354 q 544 456 581 438 q 366 486 486 486 q 258 480 313 486 z "},"ఛ":{"ha":894,"x_min":0,"x_max":776,"o":"m 654 726 l 673 570 l 228 471 l 227 538 l 654 726 m 258 480 q 259 495 259 484 q 254 547 259 506 q 304 556 263 555 q 404 549 346 557 q 526 524 461 541 q 646 477 590 506 q 773 307 770 410 q 681 72 776 164 q 607 18 644 35 q 540 -2 570 1 q 480 10 510 -5 q 428 47 450 26 q 387 90 406 69 q 351 115 369 111 q 274 92 321 126 q 152 -8 227 58 q 146 193 111 92 q 187 275 161 239 l 0 231 l 22 382 l 351 400 q 287 261 302 326 q 281 187 271 197 q 311 183 292 178 q 373 218 339 191 q 425 243 407 241 q 455 230 442 245 q 486 193 468 214 q 528 152 505 171 q 623 129 583 109 q 668 209 661 161 q 661 305 675 256 q 613 396 646 354 q 544 456 581 438 q 366 486 486 486 q 258 480 313 486 m 203 -111 l 321 -111 l 368 50 l 292 50 l 203 -111 z "},"జ":{"ha":985,"x_min":-15,"x_max":848,"o":"m 509 694 l 686 681 q 684 499 697 589 q 654 418 675 448 q 612 380 632 389 q 453 380 534 339 q 353 463 396 408 q 355 555 327 492 q 393 610 369 581 q 415 549 397 576 q 452 509 433 521 q 489 485 472 496 q 521 467 506 473 q 566 467 555 453 q 574 509 576 481 q 562 567 571 536 q 509 694 551 601 m 842 351 q 806 125 848 222 q 740 56 785 76 q 648 22 694 37 q 553 8 602 7 q 340 107 444 9 q 157 19 293 104 q 126 1 132 3 q 115 24 122 -1 q 103 85 107 49 q 142 290 85 220 q 216 365 183 340 q 57 388 119 353 q 3 529 -15 427 q 98 648 15 605 q 252 689 161 682 q 349 677 327 694 q 387 635 380 652 q 381 543 401 602 q 320 423 355 483 q 251 285 255 312 q 247 174 217 174 q 311 203 263 174 q 411 263 400 262 q 444 244 422 270 q 509 170 477 209 q 576 107 547 123 q 692 107 636 76 q 713 148 705 115 q 718 220 722 180 q 642 351 707 321 l 842 351 m 153 591 q 136 490 118 574 q 264 427 142 441 q 245 571 293 544 q 153 591 210 591 z "},"ఝ":{"ha":1363,"x_min":-4,"x_max":1218,"o":"m 728 8 q 566 37 665 37 l 532 37 q 377 18 465 37 q 431 94 397 49 q 483 164 464 138 q 538 163 491 175 q 643 115 627 141 q 707 167 675 127 q 744 267 738 206 q 719 407 750 327 q 594 582 688 487 l 787 582 q 871 304 872 446 q 728 8 868 140 m 1081 0 q 884 26 978 38 q 726 8 814 26 l 760 57 q 793 104 774 77 q 830 156 811 130 q 888 153 842 168 q 996 107 978 127 q 1073 186 1043 123 q 1042 456 1128 302 q 947 578 1008 514 l 1134 578 q 1218 298 1218 444 q 1081 0 1218 130 m 27 557 l 395 796 l 475 693 l 60 498 l 27 557 m 453 562 q 595 328 613 488 q 477 84 581 186 q 350 11 425 33 q 110 64 214 -28 q 38 155 65 103 q 3 243 11 206 q 4 317 -4 281 q 31 389 12 353 q 75 463 49 426 q 130 526 102 499 q 245 593 191 587 q 453 562 357 606 m 358 104 q 409 129 385 99 q 447 203 433 159 q 461 296 461 247 q 440 378 461 346 q 389 436 419 411 q 326 475 358 461 q 213 477 250 509 q 178 440 198 468 q 144 376 159 412 q 127 296 130 339 q 144 214 123 252 q 358 104 193 126 m 590 -174 l 708 -174 l 755 -12 l 680 -12 l 590 -174 z "},"ఞ":{"ha":1222,"x_min":-5,"x_max":1081,"o":"m 788 231 q 854 484 849 438 q 975 494 899 484 l 909 244 l 788 231 m 716 396 l 1063 414 l 1081 326 l 663 320 l 716 396 m 642 167 q 610 129 624 141 l 708 49 l 610 -14 q 574 26 590 8 q 543 61 559 45 q 517 90 526 77 q 312 5 433 22 q 117 27 197 -11 q 37 148 31 66 q 125 258 45 220 q 290 285 190 288 q 448 247 358 282 q 530 205 488 231 q 589 274 562 231 q 624 351 616 317 q 630 407 632 384 q 618 448 628 430 q 566 498 605 473 q 498 515 534 514 q 442 488 461 515 q 414 396 423 458 l 321 396 q 327 448 327 425 q 307 524 327 509 q 256 545 288 540 q 193 546 224 551 q 144 526 163 541 q 137 483 125 510 q 206 400 168 418 l 117 326 q 9 469 38 399 q 9 533 -5 506 q 73 595 24 564 q 174 649 121 627 q 272 680 228 671 q 326 671 316 688 q 349 609 339 644 q 365 552 358 574 q 457 632 406 609 q 616 608 498 650 q 691 569 680 585 q 719 532 703 553 q 742 477 735 510 q 739 349 754 419 q 642 167 723 278 m 309 204 q 286 208 309 204 q 224 204 263 212 q 179 168 186 197 q 199 125 172 140 q 270 109 227 111 q 458 141 366 103 q 399 180 442 163 q 309 204 355 197 z "},"ట":{"ha":890,"x_min":-19,"x_max":769,"o":"m 681 574 q 724 452 700 541 q 761 209 769 289 q 707 77 750 134 q 587 0 665 19 q 477 33 544 -7 q 422 62 450 49 q 366 76 395 76 q 313 68 336 76 q 273 49 290 60 q 241 25 255 38 q 214 4 227 12 q 107 100 176 19 q 5 267 34 186 q 62 439 -18 336 q 129 512 95 480 q 179 560 163 544 q 380 498 264 623 q 412 392 433 435 q 378 353 401 372 q 326 311 354 335 q 210 264 279 271 q 148 267 178 262 q 184 183 148 221 q 281 141 224 141 q 361 184 313 141 q 389 213 377 199 q 404 227 400 227 q 416 212 408 227 q 439 180 423 197 q 547 137 486 134 q 617 187 585 137 q 642 294 651 236 q 490 574 624 420 l 681 574 m 165 377 q 197 347 167 346 q 249 366 225 349 q 281 396 273 384 q 284 425 290 408 q 264 452 278 441 q 234 468 251 464 q 205 463 217 472 q 184 438 193 453 q 165 377 164 404 m 179 730 q 217 739 183 741 q 265 732 251 738 q 277 711 279 726 q 262 685 271 700 q 244 654 252 670 q 240 586 227 612 q 224 553 252 575 q 191 533 210 543 q 149 642 146 572 q 179 730 151 680 z "},"ఠ":{"ha":730,"x_min":-7,"x_max":601,"o":"m 38 545 l 384 799 l 463 700 l 68 494 l 38 545 m 453 564 q 476 553 453 564 q 534 510 499 543 q 585 435 568 477 q 595 329 601 392 q 559 203 589 266 q 477 87 529 140 q 351 14 425 35 q 216 9 277 -8 q 111 66 156 27 q 39 157 66 106 q 3 252 11 209 q 15 354 -7 296 q 75 465 37 412 q 159 554 113 517 q 252 597 205 591 q 353 594 298 602 q 453 564 407 586 m 358 107 q 409 132 385 102 q 447 205 433 161 q 462 299 461 250 q 444 382 463 349 q 326 480 397 448 q 213 480 252 511 q 145 378 178 457 q 146 217 109 288 q 358 107 195 129 m 301 373 q 354 356 331 373 q 377 315 377 339 q 354 275 377 292 q 301 258 331 258 q 248 275 271 258 q 225 315 225 292 q 248 356 225 339 q 301 373 271 373 z "},"డ":{"ha":876,"x_min":-23,"x_max":757,"o":"m 58 469 l 30 528 l 563 833 l 612 719 l 58 469 m 614 575 q 572 477 590 529 q 521 487 556 480 q 442 496 486 494 q 266 464 339 500 q 163 373 201 429 q 110 233 115 309 q 160 130 103 156 q 212 144 178 125 q 370 251 294 189 q 469 125 411 174 q 572 79 528 79 q 636 102 624 79 q 567 99 604 88 q 475 153 498 119 q 453 216 453 186 q 467 270 453 245 q 538 334 492 320 q 570 338 548 335 q 618 336 593 342 q 719 236 686 320 q 704 73 755 146 q 553 0 654 0 q 404 62 481 0 q 359 100 378 84 q 319 104 340 117 q 264 68 298 91 q 198 27 231 46 q 94 5 119 -15 q 5 275 -23 106 q 113 472 24 384 q 216 548 157 518 q 449 594 307 598 q 548 584 505 591 q 614 575 591 576 m 566 184 q 609 155 586 165 q 644 153 632 144 q 653 187 655 163 q 637 233 651 212 q 543 267 601 289 q 566 184 514 236 z "},"ఢ":{"ha":876,"x_min":-23,"x_max":757,"o":"m 297 41 l 365 42 l 340 -103 l 236 -107 l 297 41 m 58 469 l 30 528 l 587 845 l 636 731 l 58 469 m 614 575 q 570 487 576 499 q 382 507 487 521 q 216 431 294 496 q 126 305 155 380 q 119 171 96 225 q 160 130 130 144 q 212 144 178 125 q 370 251 294 189 q 469 125 411 174 q 572 79 528 79 q 636 102 624 79 q 567 99 604 88 q 475 153 498 119 q 453 216 453 186 q 467 270 453 245 q 538 334 492 320 q 570 338 548 335 q 618 336 593 342 q 719 236 686 320 q 704 73 755 146 q 553 0 654 0 q 404 62 481 0 q 359 100 378 84 q 319 104 340 117 q 264 68 298 91 q 198 27 231 46 q 94 5 119 -15 q 5 275 -23 106 q 115 472 26 387 q 221 547 163 517 q 548 583 350 618 q 614 575 591 576 m 566 184 q 609 155 586 165 q 644 153 632 144 q 653 187 655 163 q 637 233 651 212 q 543 267 601 289 q 566 184 514 236 z "},"ణ":{"ha":876,"x_min":-11,"x_max":769,"o":"m 320 3 q 171 4 254 -7 q 87 76 132 9 q 33 241 24 167 q 57 275 34 264 q 172 313 126 309 l 174 335 q 77 369 123 345 q 1 484 -11 420 q 107 579 7 532 q 279 627 212 627 q 327 610 317 627 q 341 575 334 593 q 354 543 349 557 q 366 505 366 507 l 373 481 l 387 503 q 419 538 395 519 q 530 574 464 574 l 547 574 q 761 339 769 562 q 669 111 758 233 q 587 31 629 62 q 513 0 544 0 q 433 40 467 0 q 389 121 400 80 q 381 182 377 161 q 430 262 389 222 q 521 301 471 301 q 621 247 571 301 l 631 236 l 637 248 q 662 334 662 283 q 625 456 662 422 q 553 488 594 488 q 452 444 469 488 q 444 424 448 437 q 434 397 439 411 q 420 350 423 363 l 338 350 q 345 400 340 359 q 312 491 345 468 q 218 514 285 514 q 151 504 174 514 q 125 484 129 494 q 127 446 115 463 q 237 377 153 403 q 267 370 255 372 l 256 285 q 141 218 163 258 q 147 188 137 203 q 173 163 157 172 q 206 146 189 153 q 272 134 240 134 q 320 138 304 134 l 320 3 m 469 195 q 486 141 467 161 q 564 104 519 104 q 600 138 593 104 q 591 190 605 161 q 521 244 568 244 q 469 195 473 244 z "},"త":{"ha":804,"x_min":-28,"x_max":688,"o":"m 165 513 l 152 594 l 562 833 l 586 689 q 343 586 586 689 q 273 558 307 572 q 212 532 240 544 q 165 513 184 521 m 534 500 q 635 473 601 500 q 679 403 670 446 q 676 309 688 359 q 642 210 665 258 q 587 123 618 161 q 524 68 555 84 q 313 0 408 3 q 148 29 217 -3 q 41 114 79 61 q 19 304 -28 206 q 163 453 68 406 q 253 472 210 476 q 317 448 296 468 q 339 400 338 429 q 283 269 345 340 q 168 229 235 210 q 111 259 138 237 q 159 167 118 201 q 338 109 214 121 q 507 149 456 96 q 539 197 530 171 q 556 241 548 222 q 524 228 547 233 q 473 227 500 222 q 382 294 404 237 q 408 460 347 403 q 449 495 426 476 q 349 564 425 557 q 275 560 313 568 q 186 612 189 585 q 442 597 342 650 q 505 547 483 575 q 534 500 528 518 m 156 397 q 155 359 149 381 q 176 319 161 336 q 267 304 214 277 q 255 368 271 347 q 156 397 222 406 m 564 300 q 551 378 571 343 q 457 446 511 444 q 477 336 442 372 q 564 300 510 304 z "},"థ":{"ha":806,"x_min":1,"x_max":671,"o":"m 43 552 l 506 747 l 519 612 l 52 483 l 43 552 m 491 511 q 606 422 557 477 q 663 298 654 368 q 652 173 671 228 q 600 79 632 118 q 530 20 568 41 q 462 -3 491 0 q 411 4 433 -5 q 367 28 389 14 q 319 54 345 42 q 262 66 294 66 q 189 49 229 66 q 118 0 148 31 q 3 228 7 94 q 7 328 1 270 q 48 430 14 385 q 121 503 83 475 q 491 511 288 614 m 375 151 q 384 139 375 151 q 416 111 393 127 q 461 95 438 94 q 502 112 484 96 q 531 153 519 127 q 547 213 543 179 q 543 283 551 247 q 439 422 524 362 q 279 476 362 476 q 180 442 216 476 q 114 317 129 393 q 122 168 95 222 q 203 146 152 113 q 283 195 250 174 q 326 216 317 216 q 345 193 332 213 q 375 151 357 174 m 307 410 q 323 410 307 410 q 360 392 339 410 q 381 349 381 374 q 360 307 381 324 q 307 289 339 289 q 255 307 275 289 q 235 349 235 324 q 255 392 235 374 q 307 410 275 410 m 235 41 l 302 42 l 278 -103 l 174 -107 l 235 41 z "},"ద":{"ha":804,"x_min":1,"x_max":671,"o":"m 43 552 l 506 747 l 519 612 l 52 483 l 43 552 m 491 511 q 606 422 557 477 q 663 298 654 368 q 652 173 671 228 q 600 79 632 118 q 530 20 568 41 q 462 -3 491 0 q 411 4 433 -5 q 367 28 389 14 q 319 54 345 42 q 262 66 294 66 q 189 49 229 66 q 118 0 148 31 q 3 228 7 94 q 7 328 1 270 q 48 430 14 385 q 121 503 83 475 q 491 511 288 614 m 375 151 q 384 139 375 151 q 416 111 393 127 q 461 95 438 94 q 502 112 484 96 q 531 153 519 127 q 547 213 543 179 q 543 283 551 247 q 439 422 524 362 q 279 476 362 476 q 180 442 216 476 q 114 317 129 393 q 122 168 95 222 q 203 146 152 113 q 283 195 250 174 q 326 216 317 216 q 345 193 332 213 q 375 151 357 174 z "},"ధ":{"ha":804,"x_min":1,"x_max":671,"o":"m 43 552 l 506 747 l 519 612 l 52 483 l 43 552 m 491 511 q 606 422 557 477 q 663 298 654 368 q 652 173 671 228 q 600 79 632 118 q 530 20 568 41 q 462 -3 491 0 q 411 4 433 -5 q 367 28 389 14 q 319 54 345 42 q 262 66 294 66 q 189 49 229 66 q 118 0 148 31 q 3 228 7 94 q 7 328 1 270 q 48 430 14 385 q 121 503 83 475 q 491 511 288 614 m 375 151 q 384 139 375 151 q 416 111 393 127 q 461 95 438 94 q 502 112 484 96 q 531 153 519 127 q 547 213 543 179 q 543 283 551 247 q 439 422 524 362 q 279 476 362 476 q 180 442 216 476 q 114 317 129 393 q 122 168 95 222 q 203 146 152 113 q 283 195 250 174 q 326 216 317 216 q 345 193 332 213 q 375 151 357 174 m 235 41 l 302 42 l 278 -103 l 174 -107 l 235 41 z "},"న":{"ha":791,"x_min":0,"x_max":659,"o":"m 94 610 l 515 761 l 533 610 l 103 517 l 94 610 m 8 -43 q 0 81 4 -20 q 102 293 12 225 q 252 335 174 349 q 317 182 266 258 q 373 123 343 144 q 430 117 403 102 q 498 343 566 224 q 404 448 465 400 q 359 480 380 468 q 103 515 305 515 q 326 574 273 587 q 537 465 464 525 q 635 344 610 406 q 645 223 659 282 q 595 117 631 164 q 510 38 559 69 q 419 1 461 7 q 345 9 377 -4 q 288 46 312 23 q 245 98 264 69 q 212 150 227 126 q 184 187 197 174 q 161 197 172 201 q 146 180 151 193 q 141 151 141 168 q 174 -39 138 91 l 8 -43 z "},"ప":{"ha":741,"x_min":-22,"x_max":623,"o":"m 33 442 l 1 517 l 420 746 l 477 623 l 33 442 m 566 507 q 618 302 621 400 q 584 127 616 205 q 486 16 552 49 q 304 49 411 -28 q 260 79 278 68 q 219 80 241 91 q 175 52 197 69 q 134 18 153 34 q 107 1 115 1 q 52 26 77 1 q 14 85 27 50 q 16 231 -20 170 q 123 305 60 297 q 225 250 191 315 q 323 138 266 174 q 404 117 361 117 q 479 162 446 117 q 506 282 511 208 q 426 453 499 349 l 566 507 m 142 104 q 172 133 168 111 q 167 176 175 155 q 142 214 159 198 q 110 227 125 231 q 81 198 84 220 q 87 154 77 176 q 113 116 96 132 q 142 104 129 100 z "},"ఫ":{"ha":743,"x_min":-22,"x_max":623,"o":"m 64 450 l 34 528 l 456 755 l 513 632 l 64 450 m 566 507 q 618 302 621 400 q 584 127 616 205 q 486 16 552 49 q 304 49 411 -28 q 260 79 278 68 q 219 80 241 91 q 175 52 197 69 q 134 18 153 34 q 107 1 115 1 q 52 26 77 1 q 14 85 27 50 q 16 231 -20 170 q 123 305 60 297 q 225 250 191 315 q 323 138 266 174 q 404 117 361 117 q 479 162 446 117 q 506 282 511 208 q 426 453 499 349 l 566 507 m 142 104 q 172 133 168 111 q 167 176 175 155 q 142 214 159 198 q 110 227 125 231 q 81 198 84 220 q 87 154 77 176 q 113 116 96 132 q 142 104 129 100 m 194 41 l 263 42 l 237 -103 l 133 -107 l 194 41 z "},"బ":{"ha":899,"x_min":-1,"x_max":761,"o":"m 567 594 q 735 420 678 514 q 758 339 761 378 q 741 250 754 300 q 699 153 727 201 q 629 64 671 104 q 536 4 587 23 q 470 5 505 -12 q 402 42 435 23 q 337 75 369 61 q 275 79 305 90 q 180 46 254 73 q 34 3 47 -5 q 10 34 22 5 q 3 106 -1 62 q 140 308 15 217 q 84 315 118 304 q 26 351 50 326 q 1 416 3 377 q 45 510 -1 456 q 148 581 91 564 q 254 589 205 598 q 338 552 304 581 q 376 481 372 524 q 361 404 381 438 q 311 348 340 370 q 252 310 282 326 q 198 274 222 294 q 157 222 174 254 q 140 167 141 191 q 153 130 140 142 q 189 126 165 118 q 304 181 264 153 q 354 215 345 209 q 367 216 363 221 q 386 192 370 212 q 423 153 401 172 q 522 118 480 104 q 551 136 530 119 q 591 182 572 153 q 625 331 642 254 q 465 553 604 437 q 416 594 426 587 l 567 594 m 118 518 q 112 457 100 486 q 147 410 123 429 q 199 387 171 392 q 243 393 228 381 q 246 464 262 437 q 204 505 231 491 q 151 522 178 519 q 118 518 123 525 z "},"భ":{"ha":894,"x_min":-15,"x_max":758,"o":"m 431 620 l 707 830 l 720 680 l 441 551 l 431 620 m 525 594 q 659 534 601 583 q 737 431 716 486 q 755 338 758 377 q 739 250 753 298 q 698 153 726 201 q 626 66 670 106 q 522 9 582 26 q 466 31 494 19 q 412 50 438 42 q 323 62 355 69 q 212 38 305 61 q 30 1 41 -4 q 7 33 18 4 q 1 104 -4 61 q 136 307 15 214 q 22 350 76 296 q 3 442 -14 385 q 43 507 12 471 q 145 580 90 563 q 250 588 201 597 q 334 551 300 579 q 372 479 368 522 q 357 403 377 437 q 309 347 338 369 q 252 309 281 324 q 197 273 222 293 q 156 221 172 252 q 139 165 140 190 q 151 129 138 141 q 199 130 164 117 q 268 161 235 142 q 322 193 301 179 q 353 214 343 208 q 367 215 363 220 q 386 191 370 210 q 423 152 401 171 q 518 117 479 103 q 549 135 528 118 q 589 180 570 152 q 635 350 628 236 q 612 433 627 403 q 566 492 598 464 q 501 531 533 519 q 446 551 469 543 l 525 594 m 118 517 q 112 456 100 484 q 147 409 123 427 q 199 385 171 391 q 243 392 228 380 q 244 463 259 435 q 203 504 229 490 q 150 521 176 518 q 118 517 123 524 m 288 41 l 355 42 l 331 -103 l 227 -107 l 288 41 z "},"మ":{"ha":1111,"x_min":1,"x_max":979,"o":"m 66 507 l 96 574 q 491 502 347 600 q 623 250 623 411 q 589 114 623 180 q 490 15 555 47 q 307 49 415 -30 q 264 78 282 66 q 223 79 245 90 q 178 51 201 68 q 138 17 156 34 q 111 0 119 0 q 57 22 81 -3 q 18 82 33 46 q 2 158 3 118 q 22 230 1 198 q 70 281 42 262 q 127 304 98 300 q 229 248 195 313 q 328 138 270 172 q 408 115 365 115 q 481 157 450 115 q 513 274 513 198 q 433 439 513 365 q 231 515 365 503 q 66 507 161 521 m 91 153 q 96 141 91 153 q 117 115 100 130 q 153 104 133 99 q 176 132 172 110 q 171 175 179 153 q 146 213 163 197 q 109 224 129 229 q 85 197 90 218 q 91 153 81 175 m 54 574 l 487 755 l 521 632 l 54 503 l 54 574 m 472 5 l 556 161 q 663 141 598 161 q 749 109 727 121 q 827 191 798 127 q 795 469 886 311 q 697 594 761 529 l 891 594 q 977 305 978 453 q 917 102 974 202 q 833 -1 886 49 q 675 39 735 39 q 472 5 555 39 z "},"య":{"ha":1283,"x_min":-18,"x_max":1152,"o":"m 1063 572 q 1152 297 1152 444 q 1095 99 1152 198 q 1015 -1 1065 47 q 857 34 939 28 q 770 31 808 37 q 670 15 694 20 q 703 53 686 34 q 774 142 727 81 q 822 144 785 155 q 929 106 894 122 q 1008 187 975 126 q 979 456 1063 292 q 883 572 949 513 l 1063 572 m 652 575 q 714 549 680 571 q 780 491 749 528 q 856 285 856 401 q 781 96 856 180 q 609 -1 709 16 q 561 16 586 1 q 510 43 536 30 q 420 67 449 79 q 375 49 392 56 q 345 35 358 42 q 274 1 327 24 q 166 36 220 5 q 73 117 113 66 q 5 368 -18 231 q 47 456 16 408 q 115 534 79 505 q 182 576 151 563 q 228 590 214 589 q 465 543 387 608 q 543 384 529 488 q 517 168 557 308 q 548 152 526 168 q 610 88 594 119 q 722 187 686 106 q 740 302 738 227 q 719 426 742 377 q 670 499 696 475 q 595 533 637 526 l 581 587 q 652 575 621 593 m 290 91 q 344 126 316 91 q 391 214 372 161 q 415 311 410 266 q 404 408 420 357 q 343 493 388 460 q 218 524 298 526 q 144 401 170 521 q 149 209 121 298 q 199 123 165 157 q 290 91 233 90 m 814 769 l 829 629 l 575 525 l 566 593 l 814 769 z "},"ర":{"ha":730,"x_min":-7,"x_max":610,"o":"m 65 572 l 415 815 l 500 686 l 96 509 l 65 572 m 453 562 q 594 328 610 487 q 479 85 582 189 q 353 12 427 34 q 218 7 279 -11 q 112 64 157 24 q 39 155 66 103 q 2 250 11 206 q 15 352 -7 294 q 75 463 37 410 q 159 553 113 515 q 252 594 205 590 q 453 562 359 606 m 358 104 q 409 130 385 100 q 447 204 433 160 q 462 298 461 248 q 444 381 463 347 q 326 475 393 445 q 213 477 250 509 q 145 376 178 454 q 146 214 109 285 q 358 104 195 126 z "},"ఱ":{"ha":974,"x_min":-11,"x_max":845,"o":"m 502 515 q 549 575 521 552 q 599 606 576 598 q 663 606 621 613 q 746 570 704 600 q 845 316 845 495 q 803 128 845 210 q 699 5 761 46 q 673 1 686 -1 q 635 9 659 4 q 463 27 559 27 q 269 -8 369 31 q 240 -12 254 -14 q 111 49 176 3 q 1 216 12 121 q 57 427 -9 321 q 146 525 92 481 q 254 575 201 568 q 349 567 307 582 q 417 522 391 552 q 445 464 444 491 q 408 363 448 410 q 302 294 369 317 q 195 307 254 277 q 152 339 171 320 q 168 170 117 233 q 293 109 208 123 q 404 109 357 96 q 454 141 435 115 q 463 165 461 153 q 605 103 502 95 q 724 197 686 109 q 738 321 743 243 q 694 442 735 397 q 578 468 652 488 q 566 426 552 461 q 614 339 576 399 q 614 235 648 286 q 511 175 579 180 q 311 175 437 167 l 311 273 l 503 273 q 539 287 536 273 q 529 326 543 301 q 502 515 457 426 m 254 490 q 233 450 232 476 q 250 405 235 425 q 290 378 266 385 q 338 393 315 372 q 358 437 362 415 q 337 477 354 460 q 296 500 320 494 q 254 490 273 506 z "},"ల":{"ha":785,"x_min":-8,"x_max":656,"o":"m 425 589 q 585 589 446 582 q 646 353 655 490 q 567 127 636 231 q 410 7 498 26 q 165 26 285 -20 q 62 92 107 49 q 5 204 18 136 q 12 342 -8 273 q 66 469 31 412 q 142 562 102 526 q 216 597 183 597 q 322 566 290 594 q 357 500 354 538 q 344 416 361 461 q 301 338 327 372 q 179 311 260 275 q 109 359 142 327 q 203 157 113 224 q 343 109 269 109 q 494 209 438 109 q 524 298 513 245 q 484 496 541 385 q 425 589 460 544 m 156 517 q 155 437 126 481 q 224 382 179 400 q 286 392 270 363 q 274 480 304 445 q 205 518 254 507 q 156 517 163 528 z "},"ళ":{"ha":754,"x_min":-35,"x_max":689,"o":"m 353 574 l 338 632 l 635 829 l 689 732 l 353 574 m 479 336 q 583 265 548 307 q 616 180 617 224 q 578 94 614 136 q 478 28 541 53 q 348 0 415 3 q 221 12 281 -3 q 118 62 161 27 q 66 149 75 96 q 87 261 57 224 q 165 320 117 298 q 133 334 148 327 q 91 351 118 342 q 14 543 -34 434 q 84 636 37 597 q 121 661 103 652 q 180 659 138 670 q 258 623 221 648 q 314 560 294 598 q 315 480 334 522 q 225 407 281 407 q 174 419 199 406 q 304 377 186 399 q 363 368 336 370 q 467 438 429 389 q 492 511 505 480 q 355 575 467 585 l 351 612 q 474 618 401 635 q 579 564 547 601 q 608 484 612 526 q 571 399 605 441 q 479 336 537 358 m 115 568 q 110 535 107 556 q 133 496 113 514 q 201 476 179 452 q 212 506 214 486 q 190 547 209 526 q 149 572 171 567 q 115 568 127 576 m 426 90 q 484 145 467 107 q 475 228 500 183 q 363 293 450 275 q 255 296 293 309 q 194 198 178 254 q 258 119 209 144 q 365 85 316 88 q 426 90 414 81 z "},"వ":{"ha":751,"x_min":1,"x_max":623,"o":"m 66 507 l 96 574 q 491 502 347 600 q 623 250 623 411 q 589 114 623 180 q 490 15 555 47 q 307 49 415 -30 q 264 78 282 66 q 223 79 245 90 q 178 51 201 68 q 138 17 156 34 q 111 0 119 0 q 57 22 81 -3 q 18 82 33 46 q 2 158 3 118 q 22 230 1 198 q 70 281 42 262 q 127 304 98 300 q 229 248 195 313 q 328 138 270 172 q 408 115 365 115 q 481 157 450 115 q 513 274 513 198 q 433 439 513 365 q 231 515 365 503 q 66 507 161 521 m 91 153 q 96 141 91 153 q 117 115 100 130 q 153 104 133 99 q 176 132 172 110 q 171 175 179 153 q 146 213 163 197 q 109 224 129 229 q 85 197 90 218 q 91 153 81 175 m 54 574 l 487 755 l 521 632 l 54 503 l 54 574 z "},"శ":{"ha":802,"x_min":0,"x_max":674,"o":"m 174 570 q 360 585 275 585 q 492 574 445 585 q 564 548 540 564 q 595 513 587 532 q 598 476 602 495 q 585 439 594 457 q 545 395 571 415 q 661 270 646 345 q 620 138 673 208 q 502 39 572 75 q 260 14 396 -18 q 158 62 201 27 q 109 143 115 96 q 111 222 103 190 q 136 279 118 255 q 231 346 168 323 q 71 304 161 342 q 0 269 34 289 l 0 382 q 469 415 349 458 q 469 487 479 445 q 366 530 458 525 q 174 518 278 534 l 174 570 m 347 98 q 412 90 380 90 q 465 94 444 90 q 502 116 487 99 q 524 158 517 133 q 530 212 530 183 q 522 269 530 241 q 420 339 507 317 q 357 349 387 349 q 317 346 327 350 q 241 258 263 316 q 245 156 218 199 q 347 98 266 115 m 174 518 l 151 583 l 521 806 l 574 682 l 174 518 z "},"ష":{"ha":772,"x_min":-1,"x_max":730,"o":"m 103 450 l 72 521 l 490 788 l 547 637 l 103 450 m 618 513 q 636 298 639 408 q 538 66 636 189 q 484 1 511 33 q 460 9 481 1 q 406 26 438 16 q 184 45 278 64 q 85 16 121 33 q 34 -3 49 0 q 10 18 19 -7 q 0 80 1 43 q 33 220 -1 171 q 138 296 64 264 q 194 312 170 309 q 224 304 218 315 q 339 191 252 241 q 445 149 410 149 q 495 201 465 144 q 524 308 524 256 q 501 392 518 357 q 471 450 484 427 l 618 513 m 109 113 q 147 102 126 95 q 182 129 168 110 q 203 170 197 148 q 195 202 209 191 q 162 203 182 213 q 127 177 142 194 q 104 140 111 160 q 109 113 98 121 m 730 -20 q 644 -96 666 -88 q 549 90 578 -43 q 543 264 534 159 l 636 290 q 665 68 628 170 q 730 -20 685 15 z "},"స":{"ha":758,"x_min":0,"x_max":623,"o":"m 4 -90 q 0 -8 0 -33 l 0 45 q 79 212 3 136 q 142 258 110 243 q 187 269 174 273 q 230 241 201 266 q 294 187 259 216 q 410 111 388 110 q 450 132 433 113 q 479 182 468 152 q 480 388 522 297 q 414 484 452 452 l 570 564 q 618 302 623 441 q 533 79 613 171 q 460 20 499 41 q 390 1 420 0 q 326 24 359 1 q 261 72 293 46 q 203 118 229 98 q 165 137 176 138 q 133 -45 90 130 l 4 -90 m 66 453 l 41 525 l 449 773 l 515 636 l 66 453 z "},"హ":{"ha":1096,"x_min":-1,"x_max":996,"o":"m 945 216 q 899 156 930 175 q 798 144 848 121 q 689 239 701 202 q 691 301 677 273 q 726 356 705 330 q 798 419 747 382 l 589 407 q 621 241 621 320 q 499 16 621 77 q 307 49 420 -30 q 261 79 279 68 q 220 80 243 91 q 176 52 198 69 q 135 18 153 35 q 109 1 117 1 q 54 23 79 -1 q 15 83 30 47 q -1 159 0 119 q 19 231 -1 199 q 67 282 39 263 q 125 305 95 301 q 227 250 193 315 q 326 138 267 174 q 405 117 362 117 q 477 148 448 117 q 507 254 507 179 q 456 433 507 319 q 415 506 439 471 l 779 506 q 901 450 845 506 q 945 216 996 355 m 144 104 q 173 133 170 111 q 168 176 176 155 q 143 214 160 198 q 111 227 126 231 q 82 198 85 220 q 88 154 79 176 q 114 116 98 132 q 144 104 130 100 m 804 258 q 811 248 804 258 q 839 230 818 237 q 879 242 860 222 q 894 287 898 262 q 874 332 890 312 q 838 360 859 353 q 800 350 817 368 q 787 305 784 332 q 804 258 789 278 m 4 503 l 369 769 l 442 669 l 43 446 l 4 503 z "},"ఽ":{"ha":1039,"x_min":11,"x_max":975,"o":"m 296 522 q 92 362 172 522 q 77 380 90 362 q 50 418 65 397 l 11 473 q 125 559 87 537 q 296 606 208 606 q 431 591 384 606 q 502 551 477 575 q 536 433 543 509 q 357 248 515 343 q 283 205 316 224 q 231 173 250 186 q 216 153 212 160 q 369 132 213 132 q 808 157 609 132 q 975 205 949 175 q 951 79 960 132 q 937 14 943 26 q 922 3 932 3 q 652 17 780 0 q 422 50 525 34 q 247 72 320 66 q 142 53 174 77 q 119 33 126 39 l 109 22 q 100 13 104 18 q 85 0 96 8 q 56 26 71 4 q 38 76 42 49 q 88 178 27 149 q 174 226 125 203 q 269 278 224 248 q 377 460 377 350 q 347 510 377 491 q 296 522 328 522 z "},"ా":{"ha":1297,"x_min":0,"x_max":1188,"o":"m 1028 340 q 915 388 962 340 q 868 496 868 435 q 895 590 868 557 l 892 600 l 822 590 l 0 590 l 0 680 l 991 680 q 1131 627 1073 680 q 1188 505 1188 575 q 1141 388 1188 435 q 1028 340 1095 340 m 1028 590 q 966 564 991 590 q 940 501 940 538 q 966 439 940 464 q 1028 414 991 414 q 1091 439 1065 414 q 1118 501 1118 464 q 1091 564 1118 538 q 1028 590 1065 590 z "},"ి":{"ha":0,"x_min":-195,"x_max":241,"o":"m -138 707 q -3 665 -71 665 q 111 704 64 665 q 159 799 159 743 l 149 802 q 16 746 107 746 q -135 787 -75 746 q -195 890 -195 829 q -134 995 -195 951 q 14 1039 -73 1039 q 176 964 111 1024 q 241 817 241 903 q 170 662 241 730 q -3 594 99 594 q -180 648 -113 594 l -138 707 m -106 892 q -106 876 -106 892 q -71 834 -106 860 q 9 808 -37 808 q 85 831 54 808 q 115 887 115 854 q 85 943 115 920 q 9 967 54 967 q -71 946 -37 967 q -106 892 -106 925 z "},"ీ":{"ha":0,"x_min":-205,"x_max":232,"o":"m -148 716 q -14 673 -90 673 q 106 709 62 673 q 149 799 149 746 l 142 806 q 5 754 94 754 q -144 796 -84 754 q -205 897 -205 838 q -179 962 -205 932 q -111 1005 -153 993 l -111 1012 q -163 1049 -144 1023 q -183 1109 -183 1076 q -129 1209 -183 1168 q 5 1251 -75 1251 q 144 1202 85 1251 q 195 1090 202 1154 l 99 1090 q 70 1153 99 1127 q 2 1179 41 1179 q -64 1158 -37 1179 q -91 1111 -91 1138 q -63 1063 -91 1084 q 5 1036 -35 1042 q 168 962 103 1023 q 232 816 232 902 q 164 662 232 730 q 1 594 96 594 q -190 637 -90 594 l -148 716 m -115 896 q -115 881 -115 896 q -81 847 -115 867 q -1 827 -46 827 q 75 847 45 827 q 106 896 106 867 q 75 946 106 925 q -1 967 45 967 q -81 946 -46 967 q -115 896 -115 925 z "},"ు":{"ha":326,"x_min":-343,"x_max":263,"o":"m -83 574 l 104 574 q 132 100 263 323 q 50 0 102 49 q -62 33 -7 23 q -149 41 -117 42 q -343 26 -266 35 q -309 71 -326 47 q -240 170 -275 122 q -168 163 -228 182 q -34 107 -50 126 q 7 134 -15 114 q 44 185 28 155 q 63 252 60 216 q 57 342 66 288 q -83 574 35 453 z "},"ూ":{"ha":732,"x_min":-326,"x_max":608,"o":"m 597 392 q 556 197 608 260 q 524 170 541 179 q 435 148 487 144 q 385 164 422 138 q 312 227 349 190 q 279 309 273 260 q 408 475 289 387 l 45 445 l -71 574 l 387 574 q 528 510 461 574 q 597 392 587 453 m 498 267 q 518 321 522 292 q 497 374 514 351 q 455 407 480 397 q 412 400 430 416 q 395 343 392 374 q 416 289 399 312 q 456 256 433 266 q 498 267 480 247 m -80 574 l 107 574 q 134 100 266 323 q 53 0 104 49 q -45 23 14 16 q -155 33 -111 33 q -257 26 -210 33 q -326 18 -304 20 q -273 92 -302 47 q -224 161 -243 136 q -155 157 -210 172 q -31 107 -47 126 q 9 134 -12 114 q 47 185 31 155 q 68 256 62 216 q 61 347 73 297 q -80 574 34 457 z "},"ృ":{"ha":258,"x_min":-262,"x_max":197,"o":"m -54 316 q 141 184 68 300 q 182 77 168 142 q 189 -45 197 12 q 159 -147 182 -103 q 101 -222 136 -191 q 30 -271 66 -252 q -212 -251 -113 -346 q -258 -149 -260 -203 q -172 -57 -255 -91 q -31 -118 -61 -14 q -27 -232 -20 -164 q 84 -98 60 -191 q 72 81 107 -11 q -14 163 47 137 q -34 170 -27 170 l -54 316 m -90 -222 q -80 -203 -79 -227 q -95 -161 -81 -180 q -127 -140 -109 -141 q -163 -153 -146 -138 q -174 -180 -178 -164 q -155 -209 -170 -195 q -90 -222 -119 -241 z "},"ౄ":{"ha":525,"x_min":-407,"x_max":452,"o":"m -46 248 q 235 240 182 240 q 321 223 288 240 q 380 182 354 206 q 444 71 434 127 q 429 -68 452 -20 q 296 -156 385 -161 q 180 -80 245 -145 q 172 64 113 -22 q 243 133 197 100 l 73 133 q 115 -35 119 60 q 88 -185 111 -129 q 30 -276 65 -241 q -49 -329 -5 -311 q -134 -354 -92 -347 q -214 -361 -176 -361 q -275 -361 -214 -361 q -373 -293 -339 -361 q -381 -160 -407 -225 q -340 -106 -369 -129 q -269 -81 -311 -84 q -204 -85 -228 -77 q -168 -106 -180 -92 q -175 -289 -121 -155 q -22 -195 -66 -277 q 3 -14 20 -122 q -68 98 -9 66 l -46 248 m -288 -243 q -264 -260 -279 -254 q -233 -262 -250 -267 q -214 -245 -217 -258 q -217 -220 -210 -232 q -274 -199 -236 -186 q -288 -243 -305 -216 m 278 -24 q 286 -35 278 -24 q 315 -54 293 -46 q 356 -41 338 -62 q 370 7 374 -20 q 351 54 366 34 q 313 82 335 73 q 278 75 292 91 q 260 26 256 54 q 278 -24 263 -3 z "},"ె":{"ha":0,"x_min":-453,"x_max":216,"o":"m 66 894 q 172 850 127 894 q 216 745 216 807 q 170 637 216 682 q 61 593 125 593 l -106 593 l -106 682 l 73 682 q 111 701 95 682 q 127 745 127 719 q 111 788 127 770 q 72 806 95 806 l -453 806 l -453 894 l 66 894 z "},"ే":{"ha":0,"x_min":-453,"x_max":224,"o":"m -31 891 q -66 977 -66 926 q -25 1066 -66 1028 q 76 1104 16 1104 q 180 1057 136 1104 q 224 944 224 1010 l 152 944 q 132 1007 152 981 q 83 1034 111 1034 q 34 1013 54 1034 q 14 967 14 991 q 90 891 14 918 q 181 829 146 871 q 216 733 216 788 q 170 634 216 678 q 61 590 125 590 l -209 590 l -209 680 l 73 680 q 111 697 95 680 q 127 741 127 715 q 111 784 127 766 q 72 802 95 802 l -453 802 l -453 891 l -83 891 l -35 886 l -31 891 z "},"ై":{"ha":996,"x_min":92,"x_max":903,"o":"m 754 894 q 860 850 817 894 q 903 745 903 807 q 858 637 903 682 q 749 593 812 593 l 581 593 l 581 682 l 762 682 q 800 701 784 682 q 815 745 815 719 q 799 788 815 770 q 760 806 783 806 l 235 806 l 235 894 l 754 894 m 163 -221 q 163 -239 163 -221 q 189 -284 163 -258 q 251 -311 214 -311 q 313 -284 288 -311 q 339 -221 339 -258 q 313 -159 339 -184 q 251 -133 288 -133 q 189 -159 214 -133 q 163 -221 163 -184 m 411 -221 q 372 -311 411 -263 l 374 -317 l 450 -311 l 857 -311 l 857 -400 l 267 -400 q 143 -348 194 -400 q 92 -226 92 -296 q 139 -109 92 -156 q 252 -62 186 -62 q 364 -109 317 -62 q 411 -221 411 -156 z "},"ొ":{"ha":787,"x_min":-277,"x_max":788,"o":"m 627 604 q 594 604 627 604 q 515 650 562 604 q 469 760 469 697 q 496 852 469 822 l 492 857 l 446 852 l 377 852 q 279 825 320 852 q 237 762 237 799 l 155 762 q 104 825 155 799 q -17 852 54 852 q -138 825 -88 852 q -189 758 -189 798 q -154 692 -189 719 q -71 665 -119 665 l 14 665 l 14 590 l -71 590 q -216 639 -156 590 q -277 760 -277 688 q -200 887 -277 833 q -16 941 -123 941 q 193 876 138 941 l 201 876 q 377 941 255 941 l 627 941 q 741 888 693 941 q 788 766 788 836 q 741 650 788 697 q 627 604 693 604 m 538 762 q 538 743 538 762 q 564 699 538 724 q 627 673 590 673 q 691 699 665 673 q 718 762 718 724 q 691 825 718 799 q 627 852 665 852 q 564 825 590 852 q 538 762 538 799 z "},"ో":{"ha":783,"x_min":-271,"x_max":784,"o":"m 623 604 q 590 604 623 604 q 511 650 557 604 q 464 758 464 697 q 492 852 464 818 l 488 857 l 435 852 l 374 852 q 276 825 317 852 q 235 762 235 799 l 151 762 q 104 825 151 799 q -12 852 57 852 q -132 823 -81 852 q -182 755 -182 795 q -150 690 -182 716 q -73 665 -118 665 l 19 665 l 19 590 l -73 590 q -213 638 -155 590 q -271 759 -271 686 q -195 886 -271 831 q -11 941 -118 941 q 193 876 138 941 q 308 941 250 941 l 469 941 l 514 936 l 518 941 q 483 1026 483 971 q 527 1117 483 1081 q 633 1153 571 1153 q 736 1105 694 1153 q 773 993 779 1057 l 701 993 q 684 1055 704 1028 q 633 1082 663 1082 q 583 1064 604 1082 q 562 1018 562 1046 q 581 967 562 990 q 627 939 600 944 q 739 877 694 926 q 784 762 784 827 q 736 650 784 697 q 623 604 689 604 m 534 762 q 534 743 534 762 q 560 699 534 724 q 623 673 586 673 q 687 699 661 673 q 713 762 713 724 q 687 825 713 799 q 623 852 661 852 q 560 825 586 852 q 534 762 534 799 z "},"ౌ":{"ha":833,"x_min":-260,"x_max":833,"o":"m 308 802 q 338 741 338 777 q 296 634 338 678 q 198 590 255 590 l -57 590 l -57 680 l 195 680 q 233 697 217 680 q 248 741 248 715 q 232 784 248 766 q 193 802 216 802 l -260 802 l -260 891 l 637 891 q 776 840 719 891 q 833 718 833 788 q 786 602 833 648 q 671 556 739 556 q 555 602 604 556 q 506 713 506 648 q 538 802 506 779 l 534 808 l 475 802 l 359 802 l 312 808 l 308 802 m 585 714 q 585 695 585 714 q 610 651 585 677 q 673 625 636 625 q 736 651 709 625 q 762 714 762 677 q 736 777 762 751 q 673 802 709 802 q 610 777 636 802 q 585 714 585 751 z "},"్":{"ha":0,"x_min":37,"x_max":598,"o":"m 92 852 q 37 958 37 892 q 84 1070 37 1023 q 198 1118 132 1118 l 598 1118 l 598 1029 l 199 1029 q 148 1008 170 1029 q 126 958 126 987 q 142 907 126 928 q 179 887 157 887 l 372 887 l 372 799 l 182 799 q 142 783 159 799 q 126 745 126 768 q 142 707 126 723 q 179 692 157 692 l 319 692 l 319 604 l 176 604 q 77 654 117 614 q 37 735 37 694 q 92 846 37 814 l 92 852 z "},"ౕ":{"ha":525,"x_min":92,"x_max":433,"o":"m 155 643 q 92 780 92 694 q 144 880 92 838 q 259 922 195 922 q 368 888 323 922 q 433 795 412 853 l 355 762 q 273 833 315 833 q 207 812 232 833 q 182 762 182 791 q 245 654 182 709 l 155 643 z "},"ౖ":{"ha":0,"x_min":-884,"x_max":-241,"o":"m -449 -313 l -671 -316 l -713 -316 q -841 -255 -796 -313 q -857 -141 -884 -197 q -722 -64 -829 -76 q -589 -137 -610 -50 q -593 -228 -581 -176 l -241 -197 l -241 -312 q -449 -313 -353 -312 m -680 -170 q -684 -163 -680 -170 q -705 -148 -689 -156 q -741 -148 -720 -140 q -768 -172 -762 -156 q -765 -201 -773 -189 q -734 -220 -757 -214 q -678 -214 -712 -227 q -669 -197 -669 -210 q -680 -170 -670 -183 z "},"ౘ":{"ha":977,"x_min":0,"x_max":776,"o":"m 224 547 l 654 726 l 673 570 l 228 471 l 224 547 m 258 480 q 259 495 259 484 q 254 547 259 506 q 304 556 263 555 q 404 549 346 557 q 526 524 461 541 q 646 477 590 506 q 773 307 770 410 q 681 72 776 164 q 607 18 644 35 q 540 -2 570 1 q 480 10 510 -5 q 428 47 450 26 q 387 90 406 69 q 351 115 369 111 q 274 92 321 126 q 152 -8 227 58 q 146 193 111 92 q 187 275 161 239 l 0 231 l 22 382 l 351 400 q 287 261 302 326 q 281 187 271 197 q 311 183 292 178 q 373 218 339 191 q 425 243 407 241 q 455 230 442 245 q 486 193 468 214 q 528 152 505 171 q 623 129 583 109 q 668 209 661 161 q 661 305 675 256 q 613 396 646 354 q 544 456 581 438 q 366 486 486 486 q 258 480 313 486 m 581 776 q 519 755 557 761 q 414 751 481 750 q 271 755 346 751 q 128 764 197 760 q 20 772 60 769 q 43 888 20 811 q 131 872 80 883 q 232 852 182 861 q 397 826 363 825 q 395 930 370 867 q 446 983 406 960 q 524 1007 487 1005 q 585 1000 560 1009 q 625 974 609 991 q 642 844 674 921 q 581 776 625 803 m 526 933 q 490 920 509 932 q 465 893 471 907 q 462 867 458 879 q 474 847 465 856 q 493 836 483 838 q 515 838 503 834 q 540 846 528 841 q 572 906 585 868 q 526 933 562 936 z "},"ౙ":{"ha":981,"x_min":-15,"x_max":848,"o":"m 509 694 l 686 681 q 684 499 697 589 q 654 418 675 448 q 612 380 632 389 q 453 380 534 339 q 353 463 396 408 q 355 555 327 492 q 393 610 369 581 q 415 549 397 576 q 452 509 433 521 q 489 485 472 496 q 521 467 506 473 q 566 467 555 453 q 574 509 576 481 q 562 567 571 536 q 509 694 551 601 m 842 351 q 806 125 848 222 q 740 56 785 76 q 648 22 694 37 q 553 8 602 7 q 340 107 444 9 q 157 19 293 104 q 126 1 132 3 q 115 24 122 -1 q 103 85 107 49 q 142 290 85 220 q 216 365 183 340 q 57 388 119 353 q 3 529 -15 427 q 98 648 15 605 q 252 689 161 682 q 349 677 327 694 q 387 635 380 652 q 381 543 401 602 q 320 423 355 483 q 251 285 255 312 q 247 174 217 174 q 311 203 263 174 q 411 263 400 262 q 444 244 422 270 q 509 170 477 209 q 576 107 547 123 q 692 107 636 76 q 713 148 705 115 q 718 220 722 180 q 642 351 707 321 l 842 351 m 153 591 q 136 490 118 574 q 264 427 142 441 q 245 571 293 544 q 153 591 210 591 m 581 776 q 519 755 557 761 q 414 751 481 750 q 271 755 346 751 q 128 764 197 760 q 20 772 60 769 q 43 888 20 811 q 131 872 80 883 q 232 852 182 861 q 397 826 363 825 q 395 930 370 867 q 446 983 406 960 q 524 1007 487 1005 q 585 1000 560 1009 q 625 974 609 991 q 642 844 674 921 q 581 776 625 803 m 526 933 q 490 920 509 932 q 465 893 471 907 q 462 867 458 879 q 474 847 465 856 q 493 836 483 838 q 515 838 503 834 q 540 846 528 841 q 572 906 585 868 q 526 933 562 936 z "},"ౠ":{"ha":1918,"x_min":-15,"x_max":1793,"o":"m 1790 397 q 1789 320 1793 357 q 1774 256 1785 283 q 1632 163 1735 157 q 1504 243 1600 149 q 1511 408 1434 317 q 1602 491 1545 452 l 1222 469 l 1126 594 l 1583 594 q 1723 532 1660 594 q 1790 397 1784 471 m 1694 283 q 1716 340 1720 309 q 1693 393 1712 370 q 1649 424 1674 415 q 1605 412 1625 433 q 1590 361 1586 392 q 1611 305 1595 330 q 1652 272 1628 281 q 1694 283 1676 263 m 602 594 q 747 420 692 521 q 770 336 773 374 q 753 248 768 297 q 708 149 738 198 q 529 0 637 31 q 476 28 502 9 q 427 64 450 47 q 380 94 403 81 q 340 104 358 107 q 279 85 321 102 q 190 49 237 68 q 33 0 60 0 q 9 32 20 4 q 3 102 -3 60 q 141 301 14 209 q 24 350 85 290 q 1 442 -15 387 q 41 507 9 472 q 147 582 90 564 q 255 591 205 600 q 341 553 305 582 q 382 488 377 525 q 255 308 388 381 q 157 221 186 270 q 148 144 122 164 q 196 147 160 134 q 268 185 232 160 q 327 231 304 210 q 361 264 350 251 q 377 271 373 277 q 395 236 381 264 q 431 178 410 208 q 529 113 491 100 q 559 131 537 114 q 601 176 581 148 q 598 420 680 290 q 450 594 534 521 l 602 594 m 119 517 q 112 457 100 486 q 149 410 123 429 q 202 387 174 392 q 245 395 231 381 q 247 466 263 438 q 204 507 231 494 q 151 523 178 521 q 119 517 125 525 m 674 170 q 823 109 746 152 q 886 162 854 121 q 924 267 917 203 q 899 415 930 331 q 773 594 868 499 l 968 594 q 1050 305 1050 458 q 993 102 1050 202 q 909 -1 962 49 q 662 34 826 56 q 555 9 606 27 q 674 170 613 83 m 1257 -1 q 1010 34 1175 56 q 903 9 955 27 q 963 98 932 53 q 1010 171 994 142 q 1105 142 1053 165 q 1172 109 1157 118 q 1234 162 1203 121 q 1272 267 1265 203 q 1248 415 1279 331 q 1122 594 1217 499 l 1317 594 q 1398 305 1398 458 q 1340 102 1398 202 q 1257 -1 1310 49 z "},"ౡ":{"ha":1347,"x_min":-8,"x_max":1242,"o":"m 1040 420 q 1169 355 1111 420 q 1226 153 1241 273 q 1164 41 1215 72 q 1085 20 1130 19 q 1031 48 1065 23 q 970 106 997 73 q 960 244 901 178 q 1031 301 985 275 q 927 301 963 301 q 890 300 891 301 q 789 84 867 174 q 585 -37 703 -15 q 500 -37 547 -43 q 420 -17 453 -30 q 351 16 388 -4 q 283 62 315 37 q 233 117 251 88 q 256 236 195 184 q 342 284 296 271 q 436 305 389 297 q 527 328 483 313 q 604 378 571 342 q 606 453 625 406 q 560 519 589 498 q 502 541 526 541 q 429 491 441 541 q 420 458 425 475 q 412 422 415 442 l 320 422 q 326 477 326 453 q 306 551 326 536 q 254 572 286 567 q 191 572 221 576 q 142 552 161 568 q 136 510 123 536 q 205 426 167 444 l 110 351 q 5 496 30 426 q 5 555 -8 532 q 43 600 18 579 q 102 640 69 621 q 173 673 136 658 q 241 697 210 689 q 324 697 311 715 q 347 637 336 675 q 363 578 357 600 q 456 659 403 633 q 534 658 483 671 q 629 622 585 644 q 700 572 674 600 q 742 430 742 525 q 643 277 742 342 q 426 205 552 220 q 372 161 369 183 q 400 117 373 149 q 460 76 427 84 q 529 71 494 68 q 648 111 602 75 q 724 194 689 148 q 810 420 799 300 l 1040 420 m 1142 137 q 1160 190 1164 164 q 1139 232 1156 216 q 1100 252 1122 248 q 1062 239 1078 255 q 1045 186 1042 213 q 1064 141 1048 159 q 1101 120 1080 123 q 1142 137 1123 117 z "},"ౢ":{"ha":0,"x_min":-700,"x_max":-149,"o":"m -216 -282 q -160 -296 -180 -282 q -149 -308 -152 -301 q -262 -529 -156 -452 q -342 -566 -307 -563 q -370 -567 -353 -567 q -412 -564 -387 -567 q -469 -543 -438 -560 q -524 -499 -500 -525 q -540 -374 -575 -442 q -489 -341 -517 -350 q -433 -326 -461 -332 q -378 -309 -404 -320 q -337 -281 -351 -298 q -323 -249 -323 -263 q -328 -221 -323 -235 q -358 -175 -338 -191 q -396 -160 -372 -159 q -435 -195 -426 -160 q -446 -241 -441 -217 l -499 -241 q -496 -206 -496 -222 q -514 -149 -496 -163 q -564 -136 -533 -130 q -610 -183 -627 -144 q -572 -237 -600 -228 l -624 -294 q -685 -205 -670 -245 q -692 -142 -700 -165 q -652 -102 -681 -123 q -590 -65 -623 -80 q -499 -50 -510 -28 q -473 -134 -477 -107 q -419 -76 -453 -96 q -315 -102 -388 -58 q -252 -183 -263 -133 q -247 -239 -247 -208 q -263 -298 -247 -271 q -307 -345 -279 -326 q -438 -397 -362 -385 q -464 -412 -457 -404 q -469 -429 -471 -419 q -446 -464 -467 -444 q -377 -488 -426 -492 q -301 -457 -328 -483 q -231 -342 -258 -416 q -216 -282 -218 -311 z "},"ౣ":{"ha":69,"x_min":-684,"x_max":54,"o":"m 42 -480 q -35 -526 18 -529 q -102 -476 -58 -526 q -104 -391 -138 -433 q -62 -357 -88 -372 l -155 -357 q -199 -293 -199 -357 q -198 -282 -199 -282 l -62 -282 q 14 -323 -20 -282 q 50 -408 45 -362 q 42 -480 54 -454 m -45 -455 q -41 -460 -45 -455 q -23 -467 -37 -465 q 2 -453 -9 -468 q 12 -422 14 -438 q 0 -397 9 -407 q -23 -387 -9 -388 q -47 -399 -37 -385 q -56 -429 -57 -412 q -45 -455 -54 -445 m -199 -282 q -144 -296 -164 -282 q -133 -308 -136 -301 q -245 -529 -140 -452 q -326 -566 -290 -563 q -353 -567 -336 -567 q -396 -564 -370 -567 q -453 -543 -422 -560 q -507 -499 -484 -525 q -524 -374 -559 -442 q -473 -341 -500 -350 q -416 -326 -445 -332 q -361 -309 -388 -320 q -321 -281 -335 -298 q -307 -249 -307 -263 q -312 -221 -307 -235 q -342 -175 -321 -191 q -380 -160 -355 -159 q -419 -195 -410 -160 q -430 -241 -425 -217 l -483 -241 q -480 -206 -480 -222 q -498 -149 -480 -163 q -548 -136 -517 -130 q -594 -183 -610 -144 q -556 -237 -583 -228 l -608 -294 q -669 -205 -654 -245 q -675 -142 -684 -165 q -635 -102 -665 -123 q -574 -65 -606 -80 q -483 -50 -494 -28 q -457 -134 -461 -107 q -403 -76 -437 -96 q -298 -102 -372 -58 q -236 -183 -247 -133 q -231 -239 -231 -208 q -247 -298 -231 -271 q -290 -345 -263 -326 q -422 -397 -346 -385 q -448 -412 -441 -404 q -453 -429 -454 -419 q -430 -464 -450 -444 q -361 -488 -410 -492 q -285 -457 -312 -483 q -214 -342 -241 -416 q -199 -282 -202 -311 z "},"౦":{"ha":749,"x_min":-4,"x_max":618,"o":"m 465 584 q 489 573 465 584 q 548 526 513 562 q 601 444 583 490 q 612 334 618 399 q 575 205 605 270 q 492 86 545 140 q 361 10 439 33 q 221 6 283 -12 q 113 66 159 24 q 40 160 68 107 q 4 251 12 213 q 5 326 -4 289 q 33 403 14 363 q 78 479 52 442 q 134 548 104 517 q 253 618 198 613 q 363 615 308 624 q 465 584 418 606 m 369 102 q 422 131 397 99 q 461 210 448 163 q 475 307 475 256 q 452 393 475 358 q 399 453 430 427 q 336 494 369 479 q 220 494 263 524 q 187 456 208 484 q 153 389 167 427 q 135 307 138 351 q 152 222 132 263 q 369 102 201 126 z "},"౧":{"ha":770,"x_min":-1,"x_max":658,"o":"m 0 0 q 0 79 1 26 q 3 199 -1 133 q 23 333 7 264 q 76 458 39 401 q 334 589 157 586 q 567 498 486 589 q 645 295 632 423 q 618 0 658 167 l 450 0 q 464 69 457 35 q 477 141 471 103 q 493 235 483 179 q 494 351 503 290 q 458 453 486 411 q 285 517 401 541 q 127 222 134 460 q 152 0 125 118 l 0 0 z "},"౨":{"ha":887,"x_min":-4,"x_max":772,"o":"m 734 144 q 694 88 711 103 q 517 0 635 18 l -4 0 l 61 175 l 419 176 q 594 221 540 178 q 648 399 659 296 q 609 540 643 480 q 445 636 564 623 q 453 587 453 605 q 382 477 448 506 q 275 454 331 453 q 177 490 218 454 q 146 589 136 525 q 342 696 170 686 q 665 583 566 709 q 737 454 716 521 q 765 313 758 387 q 734 144 772 239 m 254 543 q 290 511 269 519 q 330 514 311 503 q 351 548 349 525 q 340 595 354 571 q 304 627 326 618 q 264 625 282 636 q 243 591 245 614 q 254 543 240 567 z "},"౩":{"ha":735,"x_min":-1,"x_max":571,"o":"m 467 5 q 451 -2 467 5 q 390 -4 435 -8 q 285 0 345 0 q 177 -1 225 0 q 92 12 129 -1 q -1 178 8 42 q 35 186 -1 184 q 155 195 111 191 q 198 102 149 137 q 277 84 224 84 q 420 182 395 84 q 410 256 433 232 q 351 289 387 281 q 299 304 315 297 q 275 318 283 311 q 267 332 267 326 q 288 347 267 339 q 329 368 308 355 q 363 399 350 381 q 389 511 389 433 q 339 575 389 568 q 309 578 324 578 q 212 564 243 583 q 167 454 151 525 l 34 521 q 111 637 31 609 q 313 658 170 658 q 472 642 427 658 q 538 602 517 627 q 557 525 560 576 q 548 440 555 473 q 530 389 541 407 q 502 366 519 372 q 460 355 484 361 q 537 304 507 346 q 553 178 570 256 q 517 58 537 99 q 467 5 498 18 z "},"౪":{"ha":708,"x_min":1,"x_max":613,"o":"m 475 336 q 578 265 544 307 q 612 180 613 224 q 574 94 610 136 q 474 28 537 53 q 344 0 411 3 q 217 12 277 -3 q 114 62 157 27 q 62 149 71 96 q 83 261 53 224 q 161 320 113 298 q 19 472 43 388 q 43 594 1 534 q 111 659 72 637 l 180 586 q 122 498 119 555 q 170 419 125 448 q 359 368 232 380 q 463 438 426 392 q 489 511 500 480 q 458 559 477 543 q 368 598 420 587 l 438 678 q 556 606 518 654 q 595 506 594 559 q 565 406 597 453 q 475 336 533 358 m 422 90 q 479 145 463 107 q 471 228 496 183 q 358 293 446 275 q 251 296 290 309 q 190 198 174 254 q 254 119 205 144 q 361 85 312 88 q 422 90 410 81 z "},"౫":{"ha":784,"x_min":27,"x_max":694,"o":"m 205 114 q 377 243 305 176 q 500 363 449 309 q 357 555 370 453 q 385 656 349 612 q 479 709 422 701 q 581 678 536 716 q 635 583 627 640 q 574 399 648 481 q 633 347 605 377 q 680 263 661 316 q 675 146 694 189 q 634 87 656 104 q 581 58 612 69 l 509 100 q 574 144 545 110 q 598 245 604 178 q 547 326 594 278 q 240 71 467 178 q 205 114 222 79 m 433 559 q 436 544 433 559 q 471 496 438 528 q 524 471 503 464 q 553 510 544 477 q 559 572 563 543 q 536 621 555 601 q 489 637 517 642 q 445 612 461 633 q 433 559 429 591 m 27 642 q 77 774 61 739 q 163 746 110 774 q 311 642 269 690 q 312 347 357 587 q 244 66 278 167 q 69 0 221 0 l 69 83 q 149 100 96 71 q 203 167 195 127 q 209 384 213 259 q 194 591 203 553 q 109 642 190 635 q 27 642 72 646 z "},"౬":{"ha":846,"x_min":-35,"x_max":703,"o":"m 685 38 q 406 13 484 18 q 290 5 328 8 q 185 0 214 0 q 137 3 156 0 q 101 22 118 7 q 66 64 84 37 q 16 141 47 92 q 52 297 -34 233 q 148 347 90 327 q 109 373 126 357 q 56 463 64 422 q 66 531 47 505 q 118 576 84 557 q 285 617 191 617 q 414 614 347 617 q 514 610 480 612 l 560 506 q 445 509 498 507 q 275 507 326 511 q 210 488 225 503 q 192 455 194 473 q 199 418 190 437 q 218 394 208 400 q 248 385 229 388 q 292 382 267 382 q 560 392 368 380 l 587 332 q 530 328 564 331 q 444 323 495 326 q 321 318 393 321 q 216 300 248 315 q 174 266 183 286 q 183 186 159 237 q 279 155 194 161 q 703 193 419 145 l 685 38 z "},"౭":{"ha":639,"x_min":-7,"x_max":513,"o":"m 27 613 q 454 495 315 572 q 491 407 511 444 q 363 330 467 369 q 321 311 338 320 q 141 209 195 266 q 167 107 80 145 q 510 180 255 68 l 509 0 l 201 0 q 30 65 79 0 q 4 190 -7 115 q 94 287 9 229 q 321 407 178 345 q 347 424 347 415 q 331 441 347 433 q 12 491 267 471 l 5 617 l 27 613 z "},"౮":{"ha":791,"x_min":-1,"x_max":677,"o":"m 152 610 q 127 419 125 491 q 136 303 129 347 q 161 220 144 259 q 285 102 201 134 q 458 151 401 77 q 490 370 517 227 q 477 452 483 410 q 464 532 471 494 q 450 610 457 571 l 618 610 q 621 190 677 358 q 473 24 582 73 q 326 0 416 -1 q 173 39 235 1 q 75 136 111 77 q 23 267 39 195 q 3 405 7 338 q 1 528 -1 472 q 0 610 3 583 l 152 610 z "},"౯":{"ha":836,"x_min":-26,"x_max":703,"o":"m 560 225 q 363 235 411 235 q 292 233 316 235 q 221 224 235 232 q 199 199 208 217 q 192 161 190 180 q 210 128 194 142 q 258 111 225 114 q 412 108 327 106 q 560 111 498 110 l 514 7 q 285 0 429 0 q 118 41 187 0 q 54 142 42 84 q 109 243 65 199 q 148 270 126 259 q 22 347 64 300 q 16 475 -26 403 q 66 553 47 525 q 101 595 84 581 q 137 614 118 610 q 176 617 156 617 q 224 616 195 617 q 290 612 252 614 q 372 605 328 609 q 685 579 460 597 l 703 423 q 217 453 335 486 q 182 429 190 445 q 169 392 175 414 q 174 350 163 370 q 320 298 198 302 q 527 289 490 292 q 587 285 564 286 l 560 225 z "},"౸":{"ha":959,"x_min":35,"x_max":867,"o":"m 724 266 q 867 113 859 245 q 637 -94 860 -20 q 354 -134 492 -138 l 324 -46 q 488 -41 438 -45 q 624 -12 537 -37 q 788 132 788 38 q 662 203 776 183 l 716 263 l 724 266 m 800 656 q 807 461 829 575 q 711 240 783 336 q 500 95 631 132 q 122 247 263 26 q 52 422 71 330 q 84 608 35 496 q 209 795 133 715 q 361 888 290 882 q 500 884 431 895 q 628 841 570 872 q 800 656 749 779 m 524 171 q 632 252 581 165 q 700 442 684 335 q 674 624 716 556 q 484 768 608 724 q 297 761 365 810 q 249 706 278 749 q 197 606 220 663 q 170 481 175 548 q 197 353 165 414 q 305 242 228 292 q 524 171 382 193 z "},"౹":{"ha":264,"x_min":52,"x_max":172,"o":"m 172 0 l 52 0 l 52 928 l 172 928 l 172 0 z "},"౺":{"ha":859,"x_min":0,"x_max":661,"o":"m 553 361 l 552 233 q 556 213 553 221 q 579 148 555 174 q 629 136 606 132 q 661 -20 648 46 q 548 -5 595 -15 q 450 168 460 14 l 450 368 q 345 258 439 292 q 237 247 317 248 q 128 257 156 245 q 81 283 100 269 q 0 532 3 342 q 1 575 1 548 l 1 936 l 102 936 l 102 586 q 130 511 102 545 q 228 475 159 476 l 450 476 l 450 930 l 552 930 l 553 361 z "},"౻":{"ha":1134,"x_min":19,"x_max":1105,"o":"m 997 365 l 996 237 q 1000 217 997 225 q 1024 152 998 178 q 1074 140 1051 136 q 1105 -16 1093 50 q 993 -1 1040 -11 q 894 172 905 18 l 894 372 q 831 282 886 312 q 789 262 817 271 q 681 251 762 252 q 572 261 600 250 q 526 288 544 273 q 445 536 448 346 q 446 579 446 553 l 446 940 l 545 940 l 545 590 q 574 515 545 551 q 673 479 602 480 l 894 480 l 894 935 l 996 935 l 997 365 m 572 365 l 469 372 q 407 282 461 312 q 365 262 392 271 q 256 251 338 252 q 147 261 175 250 q 102 288 119 273 q 19 536 22 346 q 20 579 20 553 l 20 940 l 121 940 l 121 590 q 149 515 121 551 q 247 479 178 480 l 469 480 l 572 365 z "},"౼":{"ha":1081,"x_min":47,"x_max":1028,"o":"m 47 419 l 47 519 l 1028 519 l 1028 419 l 47 419 z "},"౽":{"ha":1017,"x_min":20,"x_max":910,"o":"m 857 5 q 602 20 715 3 q 404 54 490 38 q 256 75 317 71 q 157 52 195 80 q 129 31 137 38 q 116 21 121 24 q 106 14 111 18 q 85 0 100 9 q 57 30 72 9 q 37 76 42 50 q 84 190 23 137 q 353 471 271 317 q 387 598 387 533 q 358 648 387 629 q 300 661 338 661 q 227 643 262 661 q 168 600 193 625 q 102 502 136 566 q 60 557 98 502 l 20 613 q 73 656 45 632 q 137 700 102 680 q 307 746 221 746 q 440 730 393 746 q 511 689 487 713 q 545 572 552 646 q 361 301 526 456 q 285 232 320 263 q 216 153 210 163 q 369 132 213 132 q 857 179 712 132 q 910 208 894 190 q 887 85 897 141 q 872 18 878 30 q 857 5 867 5 z "},"౾":{"ha":1188,"x_min":38,"x_max":1058,"o":"m 1058 0 l 244 0 q 38 119 38 0 q 68 203 38 175 q 175 248 99 231 l 582 345 q 684 399 686 365 q 585 429 685 431 q 410 437 490 433 q 229 445 331 442 q 43 537 43 448 q 206 663 41 631 l 579 742 q 670 792 665 760 q 591 827 661 825 q 545 827 572 827 l 92 827 l 92 939 l 543 924 q 760 784 747 924 q 616 665 750 686 l 227 591 q 132 549 132 574 q 184 525 132 524 q 286 519 229 519 q 628 499 343 518 q 753 457 716 498 q 780 374 780 418 q 752 314 780 343 q 678 274 724 285 l 236 172 q 144 122 142 159 q 233 84 144 84 q 619 111 444 100 q 1058 142 795 121 l 1058 0 z "},"౿":{"ha":1076,"x_min":-19,"x_max":936,"o":"m 791 479 l 936 419 q 861 227 918 312 q 721 88 803 142 q 539 13 639 34 q 345 12 439 -8 q 184 74 251 31 q 75 174 118 117 q 7 435 -18 297 q 96 597 24 518 q 302 722 187 699 q 351 719 332 728 q 448 576 473 665 q 402 505 435 538 q 332 446 369 471 q 212 468 273 407 q 163 540 184 496 q 209 222 87 338 q 315 152 251 184 q 526 121 425 94 q 713 236 628 149 q 783 389 760 282 q 791 479 789 433 m 267 669 q 236 594 228 646 q 279 517 241 551 q 340 503 316 484 q 362 591 377 545 q 285 666 345 640 q 267 669 271 671 z "},"‌":{"ha":0,"x_min":0,"x_max":73,"o":"m 0 1272 l 73 1272 l 73 -562 l 0 -562 l 0 1272 z "},"‍":{"ha":0,"x_min":0,"x_max":313,"o":"m 0 1272 l 313 1272 l 313 1199 l 73 1199 l 73 -562 l 0 -562 l 0 1272 z "},"–":{"ha":618,"x_min":0,"x_max":620,"o":"m 606 321 l 0 285 l 14 392 l 620 392 l 606 321 z "},"—":{"ha":952,"x_min":0,"x_max":954,"o":"m 940 321 l 0 285 l 14 392 l 954 392 l 940 321 z "},"‘":{"ha":361,"x_min":77,"x_max":285,"o":"m 184 704 q 225 716 199 716 q 268 688 251 716 q 285 610 285 661 q 263 535 285 560 q 182 510 241 510 q 85 545 122 510 q 79 639 77 586 q 176 903 79 815 l 259 837 q 180 707 195 784 l 184 704 z "},"’":{"ha":361,"x_min":79,"x_max":285,"o":"m 178 696 q 137 684 163 684 q 95 711 111 684 q 79 789 79 739 q 100 865 79 840 q 181 890 121 890 q 277 854 241 890 q 285 761 285 814 q 187 496 285 585 l 103 563 q 182 693 167 616 l 178 696 z "},"‚":{"ha":316,"x_min":56,"x_max":263,"o":"m 155 -4 q 115 -16 140 -16 q 73 12 90 -16 q 56 90 56 39 q 77 165 56 140 q 159 190 98 190 q 254 155 220 190 q 263 61 262 114 q 165 -203 263 -115 l 81 -137 q 160 -7 145 -84 l 155 -4 z "},"“":{"ha":639,"x_min":77,"x_max":562,"o":"m 184 704 q 225 716 199 716 q 268 688 251 716 q 285 610 285 661 q 263 535 285 560 q 182 510 241 510 q 85 545 122 510 q 79 639 77 586 q 176 903 79 815 l 259 837 q 180 707 195 784 l 184 704 m 463 704 q 503 716 477 716 q 545 688 529 716 q 562 610 562 661 q 541 535 562 560 q 459 510 519 510 q 363 545 399 510 q 355 639 355 586 q 453 903 355 815 l 537 837 q 458 707 473 784 l 463 704 z "},"”":{"ha":639,"x_min":79,"x_max":563,"o":"m 178 696 q 137 684 163 684 q 95 711 111 684 q 79 789 79 739 q 100 865 79 840 q 181 890 121 890 q 277 854 241 890 q 285 761 285 814 q 187 496 285 585 l 103 563 q 182 693 167 616 l 178 696 m 456 696 q 414 684 441 684 q 372 711 388 684 q 355 789 355 739 q 377 865 355 840 q 458 890 399 890 q 555 854 518 890 q 562 761 563 814 q 464 496 562 585 l 381 563 q 460 693 445 616 l 456 696 z "},"„":{"ha":639,"x_min":79,"x_max":563,"o":"m 178 -4 q 137 -16 163 -16 q 95 12 111 -16 q 79 90 79 39 q 100 165 79 140 q 181 190 121 190 q 277 155 241 190 q 285 61 285 114 q 187 -203 285 -115 l 103 -137 q 182 -7 167 -84 l 178 -4 m 456 -4 q 414 -16 441 -16 q 372 12 388 -16 q 355 90 355 39 q 377 165 355 140 q 458 190 399 190 q 555 155 518 190 q 562 61 563 114 q 464 -203 562 -115 l 381 -137 q 460 -7 445 -84 l 456 -4 z "},"†":{"ha":716,"x_min":56,"x_max":661,"o":"m 661 463 l 463 481 l 401 -225 l 313 -225 l 251 480 l 66 463 l 56 632 l 240 602 l 224 799 l 492 822 l 473 602 l 650 632 l 661 463 z "},"‡":{"ha":716,"x_min":56,"x_max":661,"o":"m 56 134 l 275 111 l 302 290 l 273 483 l 66 463 l 56 632 l 252 601 l 224 799 l 492 822 l 458 600 l 650 632 l 661 463 l 442 483 l 415 307 l 445 111 l 650 134 l 661 -35 l 463 -4 l 494 -202 l 225 -225 l 258 -3 l 66 -35 l 56 134 z "},"•":{"ha":369,"x_min":56,"x_max":315,"o":"m 87 253 q 72 270 87 253 q 56 341 56 286 q 87 430 56 396 q 186 464 119 464 q 283 430 252 464 q 315 341 315 396 q 283 253 315 286 q 186 220 252 220 q 87 253 119 220 z "},"₹":{"ha":846,"x_min":0,"x_max":738,"o":"m 437 671 l 126 671 l 96 757 l 416 757 q 163 886 338 891 l 137 886 l 4 883 l 0 972 l 738 972 l 701 883 l 437 886 q 525 757 490 854 l 689 757 l 728 671 l 541 671 q 519 501 548 551 q 456 416 491 452 q 323 458 444 446 q 203 444 264 458 q 387 164 244 312 q 348 46 355 68 q 227 180 340 24 q 34 536 113 335 q 437 671 469 487 z "},"−":{"ha":868,"x_min":109,"x_max":760,"o":"m 109 423 l 760 423 l 760 -336 l 109 -336 l 109 423 m 705 -282 l 705 369 l 163 369 l 163 -282 l 705 -282 z "},"◌":{"ha":1180,"x_min":92,"x_max":1088,"o":"m 524 783 q 524 796 524 783 q 543 829 524 810 q 590 849 563 849 q 637 829 617 849 q 656 783 656 810 q 637 736 656 755 q 590 716 617 716 q 543 736 563 716 q 524 783 524 755 m 524 -81 q 524 -68 524 -81 q 543 -35 524 -54 q 590 -15 563 -15 q 637 -35 617 -15 q 656 -81 656 -54 q 637 -128 656 -109 q 590 -148 617 -148 q 543 -128 563 -148 q 524 -81 524 -109 m 92 350 q 92 363 92 350 q 112 397 92 377 q 159 416 132 416 q 205 397 186 416 q 225 350 225 377 q 205 304 225 323 q 159 285 186 285 q 112 304 132 285 q 92 350 92 323 m 956 350 q 956 363 956 350 q 976 397 956 377 q 1023 416 996 416 q 1069 397 1050 416 q 1088 350 1088 377 q 1069 304 1088 323 q 1023 285 1050 285 q 976 304 996 285 q 956 350 956 323 m 151 134 q 151 148 151 134 q 170 181 151 161 q 218 201 190 201 q 265 181 245 201 q 285 134 285 161 q 265 87 285 107 q 218 68 245 68 q 170 87 190 68 q 151 134 151 107 m 898 567 q 898 581 898 567 q 918 613 898 594 q 964 632 937 632 q 1011 613 991 632 q 1031 567 1031 594 q 1011 520 1031 540 q 964 500 991 500 q 918 520 937 500 q 898 567 898 540 m 741 724 q 741 738 741 724 q 760 771 741 751 q 806 791 779 791 q 852 771 833 791 q 872 724 872 751 q 852 678 872 697 q 806 659 833 659 q 760 678 779 659 q 741 724 741 697 m 308 -22 q 308 -8 308 -22 q 328 25 308 5 q 374 45 347 45 q 421 25 401 45 q 441 -22 441 5 q 421 -70 441 -50 q 374 -90 401 -90 q 328 -70 347 -90 q 308 -22 308 -50 m 151 567 q 151 581 151 567 q 170 613 151 594 q 218 632 190 632 q 265 613 245 632 q 285 567 285 594 q 265 520 285 540 q 218 500 245 500 q 170 520 190 500 q 151 567 151 540 m 898 134 q 898 148 898 134 q 918 181 898 161 q 964 201 937 201 q 1011 181 991 201 q 1031 134 1031 161 q 1011 87 1031 107 q 964 68 991 68 q 918 87 937 68 q 898 134 898 107 m 308 724 q 308 738 308 724 q 328 771 308 751 q 374 791 347 791 q 421 771 401 791 q 441 724 441 751 q 421 678 441 697 q 374 659 401 659 q 328 678 347 659 q 308 724 308 697 m 741 -22 q 741 -8 741 -22 q 760 25 741 5 q 806 45 779 45 q 852 25 833 45 q 872 -22 872 5 q 852 -70 872 -50 q 806 -90 833 -90 q 760 -70 779 -90 q 741 -22 741 -50 z "},"ﾼ":{"ha":868,"x_min":109,"x_max":760,"o":"m 109 760 l 760 760 l 760 0 l 109 0 l 109 760 m 705 54 l 705 705 l 163 705 l 163 54 l 705 54 z "},"ﾽ":{"ha":868,"x_min":109,"x_max":760,"o":"m 109 760 l 760 760 l 760 0 l 109 0 l 109 760 m 705 54 l 705 705 l 163 705 l 163 54 l 705 54 z "},"ﾾ":{"ha":868,"x_min":109,"x_max":760,"o":"m 109 760 l 760 760 l 760 0 l 109 0 l 109 760 m 705 54 l 705 705 l 163 705 l 163 54 l 705 54 z "},"﾿":{"ha":868,"x_min":109,"x_max":760,"o":"m 109 760 l 760 760 l 760 0 l 109 0 l 109 760 m 705 54 l 705 705 l 163 705 l 163 54 l 705 54 z "},"￀":{"ha":868,"x_min":109,"x_max":760,"o":"m 109 760 l 760 760 l 760 0 l 109 0 l 109 760 m 705 54 l 705 705 l 163 705 l 163 54 l 705 54 z "},"￁":{"ha":868,"x_min":109,"x_max":760,"o":"m 109 760 l 760 760 l 760 0 l 109 0 l 109 760 m 705 54 l 705 705 l 163 705 l 163 54 l 705 54 z "},"ￂ":{"ha":868,"x_min":109,"x_max":760,"o":"m 109 760 l 760 760 l 760 0 l 109 0 l 109 760 m 705 54 l 705 705 l 163 705 l 163 54 l 705 54 z "},"ￃ":{"ha":868,"x_min":109,"x_max":760,"o":"m 109 760 l 760 760 l 760 0 l 109 0 l 109 760 m 705 54 l 705 705 l 163 705 l 163 54 l 705 54 z "},"ￄ":{"ha":868,"x_min":109,"x_max":760,"o":"m 109 760 l 760 760 l 760 0 l 109 0 l 109 760 m 705 54 l 705 705 l 163 705 l 163 54 l 705 54 z "},"ￅ":{"ha":868,"x_min":109,"x_max":760,"o":"m 109 760 l 760 760 l 760 0 l 109 0 l 109 760 m 705 54 l 705 705 l 163 705 l 163 54 l 705 54 z "},"ￆ":{"ha":868,"x_min":109,"x_max":760,"o":"m 109 760 l 760 760 l 760 0 l 109 0 l 109 760 m 705 54 l 705 705 l 163 705 l 163 54 l 705 54 z "},"ￇ":{"ha":868,"x_min":109,"x_max":760,"o":"m 109 760 l 760 760 l 760 0 l 109 0 l 109 760 m 705 54 l 705 705 l 163 705 l 163 54 l 705 54 z "},"￈":{"ha":868,"x_min":109,"x_max":760,"o":"m 109 760 l 760 760 l 760 0 l 109 0 l 109 760 m 705 54 l 705 705 l 163 705 l 163 54 l 705 54 z "},"￉":{"ha":868,"x_min":109,"x_max":760,"o":"m 109 760 l 760 760 l 760 0 l 109 0 l 109 760 m 705 54 l 705 705 l 163 705 l 163 54 l 705 54 z "},"ￊ":{"ha":868,"x_min":109,"x_max":760,"o":"m 109 760 l 760 760 l 760 0 l 109 0 l 109 760 m 705 54 l 705 705 l 163 705 l 163 54 l 705 54 z "},"ￋ":{"ha":868,"x_min":109,"x_max":760,"o":"m 109 760 l 760 760 l 760 0 l 109 0 l 109 760 m 705 54 l 705 705 l 163 705 l 163 54 l 705 54 z "},"ￌ":{"ha":868,"x_min":109,"x_max":760,"o":"m 109 760 l 760 760 l 760 0 l 109 0 l 109 760 m 705 54 l 705 705 l 163 705 l 163 54 l 705 54 z "},"ￍ":{"ha":868,"x_min":109,"x_max":760,"o":"m 109 760 l 760 760 l 760 0 l 109 0 l 109 760 m 705 54 l 705 705 l 163 705 l 163 54 l 705 54 z "},"ￎ":{"ha":868,"x_min":109,"x_max":760,"o":"m 109 760 l 760 760 l 760 0 l 109 0 l 109 760 m 705 54 l 705 705 l 163 705 l 163 54 l 705 54 z "},"ￏ":{"ha":868,"x_min":109,"x_max":760,"o":"m 109 760 l 760 760 l 760 0 l 109 0 l 109 760 m 705 54 l 705 705 l 163 705 l 163 54 l 705 54 z "},"￐":{"ha":868,"x_min":109,"x_max":760,"o":"m 109 760 l 760 760 l 760 0 l 109 0 l 109 760 m 705 54 l 705 705 l 163 705 l 163 54 l 705 54 z "},"￑":{"ha":868,"x_min":109,"x_max":760,"o":"m 109 760 l 760 760 l 760 0 l 109 0 l 109 760 m 705 54 l 705 705 l 163 705 l 163 54 l 705 54 z "},"ￒ":{"ha":868,"x_min":109,"x_max":760,"o":"m 109 760 l 760 760 l 760 0 l 109 0 l 109 760 m 705 54 l 705 705 l 163 705 l 163 54 l 705 54 z "},"ￓ":{"ha":868,"x_min":109,"x_max":760,"o":"m 109 760 l 760 760 l 760 0 l 109 0 l 109 760 m 705 54 l 705 705 l 163 705 l 163 54 l 705 54 z "},"ￔ":{"ha":868,"x_min":109,"x_max":760,"o":"m 109 760 l 760 760 l 760 0 l 109 0 l 109 760 m 705 54 l 705 705 l 163 705 l 163 54 l 705 54 z "},"ￕ":{"ha":868,"x_min":109,"x_max":760,"o":"m 109 760 l 760 760 l 760 0 l 109 0 l 109 760 m 705 54 l 705 705 l 163 705 l 163 54 l 705 54 z "},"ￖ":{"ha":868,"x_min":109,"x_max":760,"o":"m 109 760 l 760 760 l 760 0 l 109 0 l 109 760 m 705 54 l 705 705 l 163 705 l 163 54 l 705 54 z "},"ￗ":{"ha":868,"x_min":109,"x_max":760,"o":"m 109 760 l 760 760 l 760 0 l 109 0 l 109 760 m 705 54 l 705 705 l 163 705 l 163 54 l 705 54 z "},"￘":{"ha":868,"x_min":109,"x_max":760,"o":"m 109 760 l 760 760 l 760 0 l 109 0 l 109 760 m 705 54 l 705 705 l 163 705 l 163 54 l 705 54 z "},"￙":{"ha":868,"x_min":109,"x_max":760,"o":"m 109 760 l 760 760 l 760 0 l 109 0 l 109 760 m 705 54 l 705 705 l 163 705 l 163 54 l 705 54 z "},"ￚ":{"ha":868,"x_min":109,"x_max":760,"o":"m 109 760 l 760 760 l 760 0 l 109 0 l 109 760 m 705 54 l 705 705 l 163 705 l 163 54 l 705 54 z "},"ￛ":{"ha":868,"x_min":109,"x_max":760,"o":"m 109 760 l 760 760 l 760 0 l 109 0 l 109 760 m 705 54 l 705 705 l 163 705 l 163 54 l 705 54 z "},"ￜ":{"ha":868,"x_min":109,"x_max":760,"o":"m 109 760 l 760 760 l 760 0 l 109 0 l 109 760 m 705 54 l 705 705 l 163 705 l 163 54 l 705 54 z "},"￝":{"ha":868,"x_min":109,"x_max":760,"o":"m 109 760 l 760 760 l 760 0 l 109 0 l 109 760 m 705 54 l 705 705 l 163 705 l 163 54 l 705 54 z "},"￞":{"ha":868,"x_min":109,"x_max":760,"o":"m 109 760 l 760 760 l 760 0 l 109 0 l 109 760 m 705 54 l 705 705 l 163 705 l 163 54 l 705 54 z "},"￟":{"ha":868,"x_min":109,"x_max":760,"o":"m 109 760 l 760 760 l 760 0 l 109 0 l 109 760 m 705 54 l 705 705 l 163 705 l 163 54 l 705 54 z "},"￠":{"ha":868,"x_min":109,"x_max":760,"o":"m 109 760 l 760 760 l 760 0 l 109 0 l 109 760 m 705 54 l 705 705 l 163 705 l 163 54 l 705 54 z "},"￡":{"ha":868,"x_min":109,"x_max":760,"o":"m 109 760 l 760 760 l 760 0 l 109 0 l 109 760 m 705 54 l 705 705 l 163 705 l 163 54 l 705 54 z "},"￢":{"ha":868,"x_min":109,"x_max":760,"o":"m 109 760 l 760 760 l 760 0 l 109 0 l 109 760 m 705 54 l 705 705 l 163 705 l 163 54 l 705 54 z "},"￣":{"ha":868,"x_min":109,"x_max":760,"o":"m 109 760 l 760 760 l 760 0 l 109 0 l 109 760 m 705 54 l 705 705 l 163 705 l 163 54 l 705 54 z "},"￧":{"ha":868,"x_min":109,"x_max":760,"o":"m 109 760 l 760 760 l 760 0 l 109 0 l 109 760 m 705 54 l 705 705 l 163 705 l 163 54 l 705 54 z "},"￨":{"ha":1389,"x_min":0,"x_max":0,"o":""},"￩":{"ha":868,"x_min":109,"x_max":760,"o":"m 109 760 l 760 760 l 760 0 l 109 0 l 109 760 m 705 54 l 705 705 l 163 705 l 163 54 l 705 54 z "},"￪":{"ha":868,"x_min":109,"x_max":760,"o":"m 109 760 l 760 760 l 760 0 l 109 0 l 109 760 m 705 54 l 705 705 l 163 705 l 163 54 l 705 54 z "},"￫":{"ha":868,"x_min":109,"x_max":760,"o":"m 109 760 l 760 760 l 760 0 l 109 0 l 109 760 m 705 54 l 705 705 l 163 705 l 163 54 l 705 54 z "},"￬":{"ha":868,"x_min":109,"x_max":760,"o":"m 109 760 l 760 760 l 760 0 l 109 0 l 109 760 m 705 54 l 705 705 l 163 705 l 163 54 l 705 54 z "},"￭":{"ha":868,"x_min":109,"x_max":760,"o":"m 109 760 l 760 760 l 760 0 l 109 0 l 109 760 m 705 54 l 705 705 l 163 705 l 163 54 l 705 54 z "},"￮":{"ha":868,"x_min":109,"x_max":760,"o":"m 109 760 l 760 760 l 760 0 l 109 0 l 109 760 m 705 54 l 705 705 l 163 705 l 163 54 l 705 54 z "},"￯":{"ha":868,"x_min":109,"x_max":760,"o":"m 109 760 l 760 760 l 760 0 l 109 0 l 109 760 m 705 54 l 705 705 l 163 705 l 163 54 l 705 54 z "},"￰":{"ha":868,"x_min":109,"x_max":760,"o":"m 109 760 l 760 760 l 760 0 l 109 0 l 109 760 m 705 54 l 705 705 l 163 705 l 163 54 l 705 54 z "},"￱":{"ha":868,"x_min":109,"x_max":760,"o":"m 109 760 l 760 760 l 760 0 l 109 0 l 109 760 m 705 54 l 705 705 l 163 705 l 163 54 l 705 54 z "},"￲":{"ha":868,"x_min":109,"x_max":760,"o":"m 109 760 l 760 760 l 760 0 l 109 0 l 109 760 m 705 54 l 705 705 l 163 705 l 163 54 l 705 54 z "}}}
